G04 #@! TF.GenerationSoftware,KiCad,Pcbnew,(6.0.11)*
G04 #@! TF.CreationDate,2023-02-19T10:02:12-08:00*
G04 #@! TF.ProjectId,AtariCart,41746172-6943-4617-9274-2e6b69636164,rev?*
G04 #@! TF.SameCoordinates,Original*
G04 #@! TF.FileFunction,Soldermask,Top*
G04 #@! TF.FilePolarity,Negative*
%FSLAX46Y46*%
G04 Gerber Fmt 4.6, Leading zero omitted, Abs format (unit mm)*
G04 Created by KiCad (PCBNEW (6.0.11)) date 2023-02-19 10:02:12*
%MOMM*%
%LPD*%
G01*
G04 APERTURE LIST*
G04 Aperture macros list*
%AMRoundRect*
0 Rectangle with rounded corners*
0 $1 Rounding radius*
0 $2 $3 $4 $5 $6 $7 $8 $9 X,Y pos of 4 corners*
0 Add a 4 corners polygon primitive as box body*
4,1,4,$2,$3,$4,$5,$6,$7,$8,$9,$2,$3,0*
0 Add four circle primitives for the rounded corners*
1,1,$1+$1,$2,$3*
1,1,$1+$1,$4,$5*
1,1,$1+$1,$6,$7*
1,1,$1+$1,$8,$9*
0 Add four rect primitives between the rounded corners*
20,1,$1+$1,$2,$3,$4,$5,0*
20,1,$1+$1,$4,$5,$6,$7,0*
20,1,$1+$1,$6,$7,$8,$9,0*
20,1,$1+$1,$8,$9,$2,$3,0*%
%AMFreePoly0*
4,1,22,0.500000,-0.750000,0.000000,-0.750000,0.000000,-0.745033,-0.079941,-0.743568,-0.215256,-0.701293,-0.333266,-0.622738,-0.424486,-0.514219,-0.481581,-0.384460,-0.499164,-0.250000,-0.500000,-0.250000,-0.500000,0.250000,-0.499164,0.250000,-0.499963,0.256109,-0.478152,0.396186,-0.417904,0.524511,-0.324060,0.630769,-0.204165,0.706417,-0.067858,0.745374,0.000000,0.744959,0.000000,0.750000,
0.500000,0.750000,0.500000,-0.750000,0.500000,-0.750000,$1*%
%AMFreePoly1*
4,1,20,0.000000,0.744959,0.073905,0.744508,0.209726,0.703889,0.328688,0.626782,0.421226,0.519385,0.479903,0.390333,0.500000,0.250000,0.500000,-0.250000,0.499851,-0.262216,0.476331,-0.402017,0.414519,-0.529596,0.319384,-0.634700,0.198574,-0.708877,0.061801,-0.746166,0.000000,-0.745033,0.000000,-0.750000,-0.500000,-0.750000,-0.500000,0.750000,0.000000,0.750000,0.000000,0.744959,
0.000000,0.744959,$1*%
G04 Aperture macros list end*
%ADD10C,0.100000*%
%ADD11R,1.600000X1.600000*%
%ADD12O,1.600000X1.600000*%
%ADD13C,1.600000*%
%ADD14C,1.400000*%
%ADD15O,1.400000X1.400000*%
%ADD16FreePoly0,0.000000*%
%ADD17FreePoly1,0.000000*%
%ADD18RoundRect,1.000000X0.000000X-2.810000X0.000000X-2.810000X0.000000X2.810000X0.000000X2.810000X0*%
G04 APERTURE END LIST*
D10*
X25400000Y-74422000D02*
X65532000Y-74422000D01*
X65532000Y-74422000D02*
X65532000Y-82169000D01*
X65532000Y-82169000D02*
X25400000Y-82169000D01*
X25400000Y-82169000D02*
X25400000Y-74422000D01*
G36*
X25400000Y-74422000D02*
G01*
X65532000Y-74422000D01*
X65532000Y-82169000D01*
X25400000Y-82169000D01*
X25400000Y-74422000D01*
G37*
D11*
X28956000Y-64262000D03*
D12*
X31496000Y-64262000D03*
X34036000Y-64262000D03*
X36576000Y-64262000D03*
X39116000Y-64262000D03*
X41656000Y-64262000D03*
X44196000Y-64262000D03*
X46736000Y-64262000D03*
X49276000Y-64262000D03*
X51816000Y-64262000D03*
X54356000Y-64262000D03*
X56896000Y-64262000D03*
X59436000Y-64262000D03*
X61976000Y-64262000D03*
X61976000Y-49022000D03*
X59436000Y-49022000D03*
X56896000Y-49022000D03*
X54356000Y-49022000D03*
X51816000Y-49022000D03*
X49276000Y-49022000D03*
X46736000Y-49022000D03*
X44196000Y-49022000D03*
X41656000Y-49022000D03*
X39116000Y-49022000D03*
X36576000Y-49022000D03*
X34036000Y-49022000D03*
X31496000Y-49022000D03*
X28956000Y-49022000D03*
D11*
X45720000Y-36576000D03*
D12*
X48260000Y-36576000D03*
X50800000Y-36576000D03*
X53340000Y-36576000D03*
X55880000Y-36576000D03*
X58420000Y-36576000D03*
X60960000Y-36576000D03*
X60960000Y-28956000D03*
X58420000Y-28956000D03*
X55880000Y-28956000D03*
X53340000Y-28956000D03*
X50800000Y-28956000D03*
X48260000Y-28956000D03*
X45720000Y-28956000D03*
D11*
X28956000Y-29972000D03*
D12*
X28956000Y-32512000D03*
X36576000Y-32512000D03*
X36576000Y-29972000D03*
D13*
X40767000Y-42926000D03*
D12*
X48267000Y-42926000D03*
D14*
X36576000Y-37592000D03*
D15*
X28956000Y-37592000D03*
D16*
X32116000Y-29718000D03*
D17*
X33416000Y-29718000D03*
D16*
X32116000Y-32766000D03*
D17*
X33416000Y-32766000D03*
D14*
X40132000Y-28448000D03*
D15*
X40132000Y-36068000D03*
D18*
X27686000Y-78105000D03*
X30226000Y-78105000D03*
X32766000Y-78105000D03*
X35306000Y-78105000D03*
X37846000Y-78105000D03*
X40386000Y-78105000D03*
X42926000Y-78105000D03*
X45466000Y-78105000D03*
X48006000Y-78105000D03*
X50546000Y-78105000D03*
X53086000Y-78105000D03*
X55626000Y-78105000D03*
X58166000Y-78105000D03*
X60706000Y-78105000D03*
X63246000Y-78105000D03*
M02*
