M48
; DRILL file {KiCad (6.0.11)} date Sun Feb 19 10:02:10 2023
; FORMAT={-:-/ absolute / metric / decimal}
; #@! TF.CreationDate,2023-02-19T10:02:10-08:00
; #@! TF.GenerationSoftware,Kicad,Pcbnew,(6.0.11)
; #@! TF.FileFunction,Plated,1,2,PTH
FMAT,2
METRIC
; #@! TA.AperFunction,Plated,PTH,ViaDrill
T1C0.400
; #@! TA.AperFunction,Plated,PTH,ComponentDrill
T2C0.700
; #@! TA.AperFunction,Plated,PTH,ComponentDrill
T3C0.800
%
G90
G05
T1
X36.068Y-68.326
X40.132Y-66.294
X41.91Y-73.152
X53.103Y-54.249
T2
X28.956Y-37.592
X36.576Y-37.592
X40.132Y-28.448
X40.132Y-36.068
T3
X28.956Y-29.972
X28.956Y-32.512
X28.956Y-49.022
X28.956Y-64.262
X31.496Y-49.022
X31.496Y-64.262
X34.036Y-49.022
X34.036Y-64.262
X36.576Y-29.972
X36.576Y-32.512
X36.576Y-49.022
X36.576Y-64.262
X39.116Y-49.022
X39.116Y-64.262
X40.767Y-42.926
X41.656Y-49.022
X41.656Y-64.262
X44.196Y-49.022
X44.196Y-64.262
X45.72Y-28.956
X45.72Y-36.576
X46.736Y-49.022
X46.736Y-64.262
X48.26Y-28.956
X48.26Y-36.576
X48.267Y-42.926
X49.276Y-49.022
X49.276Y-64.262
X50.8Y-28.956
X50.8Y-36.576
X51.816Y-49.022
X51.816Y-64.262
X53.34Y-28.956
X53.34Y-36.576
X54.356Y-49.022
X54.356Y-64.262
X55.88Y-28.956
X55.88Y-36.576
X56.896Y-49.022
X56.896Y-64.262
X58.42Y-28.956
X58.42Y-36.576
X59.436Y-49.022
X59.436Y-64.262
X60.96Y-28.956
X60.96Y-36.576
X61.976Y-49.022
X61.976Y-64.262
T0
M30
