G04 #@! TF.GenerationSoftware,KiCad,Pcbnew,(6.0.11)*
G04 #@! TF.CreationDate,2023-02-19T10:02:12-08:00*
G04 #@! TF.ProjectId,AtariCart,41746172-6943-4617-9274-2e6b69636164,rev?*
G04 #@! TF.SameCoordinates,Original*
G04 #@! TF.FileFunction,Legend,Top*
G04 #@! TF.FilePolarity,Positive*
%FSLAX46Y46*%
G04 Gerber Fmt 4.6, Leading zero omitted, Abs format (unit mm)*
G04 Created by KiCad (PCBNEW (6.0.11)) date 2023-02-19 10:02:12*
%MOMM*%
%LPD*%
G01*
G04 APERTURE LIST*
%ADD10C,0.250000*%
%ADD11C,0.200000*%
%ADD12C,0.300000*%
%ADD13C,0.150000*%
%ADD14C,0.120000*%
G04 APERTURE END LIST*
D10*
X27251000Y-35083571D02*
X27251000Y-34512142D01*
X27593857Y-35197857D02*
X26393857Y-34797857D01*
X27593857Y-34397857D01*
X27593857Y-33369285D02*
X27593857Y-34055000D01*
X27593857Y-33712142D02*
X26393857Y-33712142D01*
X26565285Y-33826428D01*
X26679571Y-33940714D01*
X26736714Y-34055000D01*
X26393857Y-32283571D02*
X26393857Y-32855000D01*
X26965285Y-32912142D01*
X26908142Y-32855000D01*
X26851000Y-32740714D01*
X26851000Y-32455000D01*
X26908142Y-32340714D01*
X26965285Y-32283571D01*
X27079571Y-32226428D01*
X27365285Y-32226428D01*
X27479571Y-32283571D01*
X27536714Y-32340714D01*
X27593857Y-32455000D01*
X27593857Y-32740714D01*
X27536714Y-32855000D01*
X27479571Y-32912142D01*
D11*
X35620285Y-27167619D02*
X34991714Y-27167619D01*
X35306000Y-27167619D02*
X35306000Y-26067619D01*
X35201238Y-26224761D01*
X35096476Y-26329523D01*
X34991714Y-26381904D01*
X27492285Y-67934619D02*
X26863714Y-67934619D01*
X27178000Y-67934619D02*
X27178000Y-66834619D01*
X27073238Y-66991761D01*
X26968476Y-67096523D01*
X26863714Y-67148904D01*
D10*
X27251000Y-30003571D02*
X27251000Y-29432142D01*
X27593857Y-30117857D02*
X26393857Y-29717857D01*
X27593857Y-29317857D01*
X27593857Y-28289285D02*
X27593857Y-28975000D01*
X27593857Y-28632142D02*
X26393857Y-28632142D01*
X26565285Y-28746428D01*
X26679571Y-28860714D01*
X26736714Y-28975000D01*
X26793857Y-27260714D02*
X27593857Y-27260714D01*
X26336714Y-27546428D02*
X27193857Y-27832142D01*
X27193857Y-27089285D01*
D12*
X35791428Y-70123857D02*
X35291428Y-70123857D01*
X35291428Y-70909571D02*
X35291428Y-69409571D01*
X36005714Y-69409571D01*
X37434285Y-70909571D02*
X36934285Y-70195285D01*
X36577142Y-70909571D02*
X36577142Y-69409571D01*
X37148571Y-69409571D01*
X37291428Y-69481000D01*
X37362857Y-69552428D01*
X37434285Y-69695285D01*
X37434285Y-69909571D01*
X37362857Y-70052428D01*
X37291428Y-70123857D01*
X37148571Y-70195285D01*
X36577142Y-70195285D01*
X38362857Y-69409571D02*
X38648571Y-69409571D01*
X38791428Y-69481000D01*
X38934285Y-69623857D01*
X39005714Y-69909571D01*
X39005714Y-70409571D01*
X38934285Y-70695285D01*
X38791428Y-70838142D01*
X38648571Y-70909571D01*
X38362857Y-70909571D01*
X38220000Y-70838142D01*
X38077142Y-70695285D01*
X38005714Y-70409571D01*
X38005714Y-69909571D01*
X38077142Y-69623857D01*
X38220000Y-69481000D01*
X38362857Y-69409571D01*
X39648571Y-70909571D02*
X39648571Y-69409571D01*
X40505714Y-70909571D01*
X40505714Y-69409571D01*
X41005714Y-69409571D02*
X41862857Y-69409571D01*
X41434285Y-70909571D02*
X41434285Y-69409571D01*
X43720000Y-70909571D02*
X43577142Y-70838142D01*
X43505714Y-70766714D01*
X43434285Y-70623857D01*
X43434285Y-70195285D01*
X43505714Y-70052428D01*
X43577142Y-69981000D01*
X43720000Y-69909571D01*
X43934285Y-69909571D01*
X44077142Y-69981000D01*
X44148571Y-70052428D01*
X44220000Y-70195285D01*
X44220000Y-70623857D01*
X44148571Y-70766714D01*
X44077142Y-70838142D01*
X43934285Y-70909571D01*
X43720000Y-70909571D01*
X44862857Y-70909571D02*
X44862857Y-69909571D01*
X44862857Y-70195285D02*
X44934285Y-70052428D01*
X45005714Y-69981000D01*
X45148571Y-69909571D01*
X45291428Y-69909571D01*
X46720000Y-69409571D02*
X47577142Y-69409571D01*
X47148571Y-70909571D02*
X47148571Y-69409571D01*
X48362857Y-69409571D02*
X48648571Y-69409571D01*
X48791428Y-69481000D01*
X48934285Y-69623857D01*
X49005714Y-69909571D01*
X49005714Y-70409571D01*
X48934285Y-70695285D01*
X48791428Y-70838142D01*
X48648571Y-70909571D01*
X48362857Y-70909571D01*
X48220000Y-70838142D01*
X48077142Y-70695285D01*
X48005714Y-70409571D01*
X48005714Y-69909571D01*
X48077142Y-69623857D01*
X48220000Y-69481000D01*
X48362857Y-69409571D01*
X49648571Y-70909571D02*
X49648571Y-69409571D01*
X50220000Y-69409571D01*
X50362857Y-69481000D01*
X50434285Y-69552428D01*
X50505714Y-69695285D01*
X50505714Y-69909571D01*
X50434285Y-70052428D01*
X50362857Y-70123857D01*
X50220000Y-70195285D01*
X49648571Y-70195285D01*
X52220000Y-70838142D02*
X52362857Y-70909571D01*
X52648571Y-70909571D01*
X52791428Y-70838142D01*
X52862857Y-70695285D01*
X52862857Y-70623857D01*
X52791428Y-70481000D01*
X52648571Y-70409571D01*
X52434285Y-70409571D01*
X52291428Y-70338142D01*
X52220000Y-70195285D01*
X52220000Y-70123857D01*
X52291428Y-69981000D01*
X52434285Y-69909571D01*
X52648571Y-69909571D01*
X52791428Y-69981000D01*
X53505714Y-70909571D02*
X53505714Y-69909571D01*
X53505714Y-69409571D02*
X53434285Y-69481000D01*
X53505714Y-69552428D01*
X53577142Y-69481000D01*
X53505714Y-69409571D01*
X53505714Y-69552428D01*
X54862857Y-70909571D02*
X54862857Y-69409571D01*
X54862857Y-70838142D02*
X54720000Y-70909571D01*
X54434285Y-70909571D01*
X54291428Y-70838142D01*
X54220000Y-70766714D01*
X54148571Y-70623857D01*
X54148571Y-70195285D01*
X54220000Y-70052428D01*
X54291428Y-69981000D01*
X54434285Y-69909571D01*
X54720000Y-69909571D01*
X54862857Y-69981000D01*
X56148571Y-70838142D02*
X56005714Y-70909571D01*
X55720000Y-70909571D01*
X55577142Y-70838142D01*
X55505714Y-70695285D01*
X55505714Y-70123857D01*
X55577142Y-69981000D01*
X55720000Y-69909571D01*
X56005714Y-69909571D01*
X56148571Y-69981000D01*
X56220000Y-70123857D01*
X56220000Y-70266714D01*
X55505714Y-70409571D01*
D11*
X29665619Y-26067619D02*
X29770380Y-26067619D01*
X29875142Y-26120000D01*
X29927523Y-26172380D01*
X29979904Y-26277142D01*
X30032285Y-26486666D01*
X30032285Y-26748571D01*
X29979904Y-26958095D01*
X29927523Y-27062857D01*
X29875142Y-27115238D01*
X29770380Y-27167619D01*
X29665619Y-27167619D01*
X29560857Y-27115238D01*
X29508476Y-27062857D01*
X29456095Y-26958095D01*
X29403714Y-26748571D01*
X29403714Y-26486666D01*
X29456095Y-26277142D01*
X29508476Y-26172380D01*
X29560857Y-26120000D01*
X29665619Y-26067619D01*
D13*
X31623095Y-52411380D02*
X31623095Y-53220904D01*
X31670714Y-53316142D01*
X31718333Y-53363761D01*
X31813571Y-53411380D01*
X32004047Y-53411380D01*
X32099285Y-53363761D01*
X32146904Y-53316142D01*
X32194523Y-53220904D01*
X32194523Y-52411380D01*
X32623095Y-52506619D02*
X32670714Y-52459000D01*
X32765952Y-52411380D01*
X33004047Y-52411380D01*
X33099285Y-52459000D01*
X33146904Y-52506619D01*
X33194523Y-52601857D01*
X33194523Y-52697095D01*
X33146904Y-52839952D01*
X32575476Y-53411380D01*
X33194523Y-53411380D01*
X33631523Y-56189619D02*
X33679142Y-56142000D01*
X33774380Y-56094380D01*
X34012476Y-56094380D01*
X34107714Y-56142000D01*
X34155333Y-56189619D01*
X34202952Y-56284857D01*
X34202952Y-56380095D01*
X34155333Y-56522952D01*
X33583904Y-57094380D01*
X34202952Y-57094380D01*
X34536285Y-56094380D02*
X35202952Y-56094380D01*
X34774380Y-57094380D01*
X36155333Y-56999142D02*
X36107714Y-57046761D01*
X35964857Y-57094380D01*
X35869619Y-57094380D01*
X35726761Y-57046761D01*
X35631523Y-56951523D01*
X35583904Y-56856285D01*
X35536285Y-56665809D01*
X35536285Y-56522952D01*
X35583904Y-56332476D01*
X35631523Y-56237238D01*
X35726761Y-56142000D01*
X35869619Y-56094380D01*
X35964857Y-56094380D01*
X36107714Y-56142000D01*
X36155333Y-56189619D01*
X37060095Y-56094380D02*
X36583904Y-56094380D01*
X36536285Y-56570571D01*
X36583904Y-56522952D01*
X36679142Y-56475333D01*
X36917238Y-56475333D01*
X37012476Y-56522952D01*
X37060095Y-56570571D01*
X37107714Y-56665809D01*
X37107714Y-56903904D01*
X37060095Y-56999142D01*
X37012476Y-57046761D01*
X36917238Y-57094380D01*
X36679142Y-57094380D01*
X36583904Y-57046761D01*
X36536285Y-56999142D01*
X38060095Y-57094380D02*
X37488666Y-57094380D01*
X37774380Y-57094380D02*
X37774380Y-56094380D01*
X37679142Y-56237238D01*
X37583904Y-56332476D01*
X37488666Y-56380095D01*
X38441047Y-56189619D02*
X38488666Y-56142000D01*
X38583904Y-56094380D01*
X38822000Y-56094380D01*
X38917238Y-56142000D01*
X38964857Y-56189619D01*
X39012476Y-56284857D01*
X39012476Y-56380095D01*
X38964857Y-56522952D01*
X38393428Y-57094380D01*
X39012476Y-57094380D01*
X42418095Y-34377380D02*
X42418095Y-35186904D01*
X42465714Y-35282142D01*
X42513333Y-35329761D01*
X42608571Y-35377380D01*
X42799047Y-35377380D01*
X42894285Y-35329761D01*
X42941904Y-35282142D01*
X42989523Y-35186904D01*
X42989523Y-34377380D01*
X43989523Y-35377380D02*
X43418095Y-35377380D01*
X43703809Y-35377380D02*
X43703809Y-34377380D01*
X43608571Y-34520238D01*
X43513333Y-34615476D01*
X43418095Y-34663095D01*
X50189142Y-32218380D02*
X50855809Y-32218380D01*
X50427238Y-33218380D01*
X51665333Y-32551714D02*
X51665333Y-33218380D01*
X51427238Y-32170761D02*
X51189142Y-32885047D01*
X51808190Y-32885047D01*
X52665333Y-33218380D02*
X52189142Y-33218380D01*
X52189142Y-32218380D01*
X52951047Y-33170761D02*
X53093904Y-33218380D01*
X53332000Y-33218380D01*
X53427238Y-33170761D01*
X53474857Y-33123142D01*
X53522476Y-33027904D01*
X53522476Y-32932666D01*
X53474857Y-32837428D01*
X53427238Y-32789809D01*
X53332000Y-32742190D01*
X53141523Y-32694571D01*
X53046285Y-32646952D01*
X52998666Y-32599333D01*
X52951047Y-32504095D01*
X52951047Y-32408857D01*
X52998666Y-32313619D01*
X53046285Y-32266000D01*
X53141523Y-32218380D01*
X53379619Y-32218380D01*
X53522476Y-32266000D01*
X54141523Y-32218380D02*
X54236761Y-32218380D01*
X54332000Y-32266000D01*
X54379619Y-32313619D01*
X54427238Y-32408857D01*
X54474857Y-32599333D01*
X54474857Y-32837428D01*
X54427238Y-33027904D01*
X54379619Y-33123142D01*
X54332000Y-33170761D01*
X54236761Y-33218380D01*
X54141523Y-33218380D01*
X54046285Y-33170761D01*
X53998666Y-33123142D01*
X53951047Y-33027904D01*
X53903428Y-32837428D01*
X53903428Y-32599333D01*
X53951047Y-32408857D01*
X53998666Y-32313619D01*
X54046285Y-32266000D01*
X54141523Y-32218380D01*
X55093904Y-32218380D02*
X55189142Y-32218380D01*
X55284380Y-32266000D01*
X55332000Y-32313619D01*
X55379619Y-32408857D01*
X55427238Y-32599333D01*
X55427238Y-32837428D01*
X55379619Y-33027904D01*
X55332000Y-33123142D01*
X55284380Y-33170761D01*
X55189142Y-33218380D01*
X55093904Y-33218380D01*
X54998666Y-33170761D01*
X54951047Y-33123142D01*
X54903428Y-33027904D01*
X54855809Y-32837428D01*
X54855809Y-32599333D01*
X54903428Y-32408857D01*
X54951047Y-32313619D01*
X54998666Y-32266000D01*
X55093904Y-32218380D01*
X35242666Y-35837761D02*
X35385523Y-35885380D01*
X35623619Y-35885380D01*
X35718857Y-35837761D01*
X35766476Y-35790142D01*
X35814095Y-35694904D01*
X35814095Y-35599666D01*
X35766476Y-35504428D01*
X35718857Y-35456809D01*
X35623619Y-35409190D01*
X35433142Y-35361571D01*
X35337904Y-35313952D01*
X35290285Y-35266333D01*
X35242666Y-35171095D01*
X35242666Y-35075857D01*
X35290285Y-34980619D01*
X35337904Y-34933000D01*
X35433142Y-34885380D01*
X35671238Y-34885380D01*
X35814095Y-34933000D01*
X36147428Y-34885380D02*
X36385523Y-35885380D01*
X36576000Y-35171095D01*
X36766476Y-35885380D01*
X37004571Y-34885380D01*
X37909333Y-35885380D02*
X37337904Y-35885380D01*
X37623619Y-35885380D02*
X37623619Y-34885380D01*
X37528380Y-35028238D01*
X37433142Y-35123476D01*
X37337904Y-35171095D01*
X44350333Y-40863142D02*
X44302714Y-40910761D01*
X44159857Y-40958380D01*
X44064619Y-40958380D01*
X43921761Y-40910761D01*
X43826523Y-40815523D01*
X43778904Y-40720285D01*
X43731285Y-40529809D01*
X43731285Y-40386952D01*
X43778904Y-40196476D01*
X43826523Y-40101238D01*
X43921761Y-40006000D01*
X44064619Y-39958380D01*
X44159857Y-39958380D01*
X44302714Y-40006000D01*
X44350333Y-40053619D01*
X45302714Y-40958380D02*
X44731285Y-40958380D01*
X45017000Y-40958380D02*
X45017000Y-39958380D01*
X44921761Y-40101238D01*
X44826523Y-40196476D01*
X44731285Y-40244095D01*
X43397952Y-43378380D02*
X42826523Y-43378380D01*
X43112238Y-43378380D02*
X43112238Y-42378380D01*
X43017000Y-42521238D01*
X42921761Y-42616476D01*
X42826523Y-42664095D01*
X44017000Y-42378380D02*
X44112238Y-42378380D01*
X44207476Y-42426000D01*
X44255095Y-42473619D01*
X44302714Y-42568857D01*
X44350333Y-42759333D01*
X44350333Y-42997428D01*
X44302714Y-43187904D01*
X44255095Y-43283142D01*
X44207476Y-43330761D01*
X44112238Y-43378380D01*
X44017000Y-43378380D01*
X43921761Y-43330761D01*
X43874142Y-43283142D01*
X43826523Y-43187904D01*
X43778904Y-42997428D01*
X43778904Y-42759333D01*
X43826523Y-42568857D01*
X43874142Y-42473619D01*
X43921761Y-42426000D01*
X44017000Y-42378380D01*
X44969380Y-42378380D02*
X45064619Y-42378380D01*
X45159857Y-42426000D01*
X45207476Y-42473619D01*
X45255095Y-42568857D01*
X45302714Y-42759333D01*
X45302714Y-42997428D01*
X45255095Y-43187904D01*
X45207476Y-43283142D01*
X45159857Y-43330761D01*
X45064619Y-43378380D01*
X44969380Y-43378380D01*
X44874142Y-43330761D01*
X44826523Y-43283142D01*
X44778904Y-43187904D01*
X44731285Y-42997428D01*
X44731285Y-42759333D01*
X44778904Y-42568857D01*
X44826523Y-42473619D01*
X44874142Y-42426000D01*
X44969380Y-42378380D01*
X45731285Y-42711714D02*
X45731285Y-43378380D01*
X45731285Y-42806952D02*
X45778904Y-42759333D01*
X45874142Y-42711714D01*
X46017000Y-42711714D01*
X46112238Y-42759333D01*
X46159857Y-42854571D01*
X46159857Y-43378380D01*
X33615333Y-39822380D02*
X33282000Y-39346190D01*
X33043904Y-39822380D02*
X33043904Y-38822380D01*
X33424857Y-38822380D01*
X33520095Y-38870000D01*
X33567714Y-38917619D01*
X33615333Y-39012857D01*
X33615333Y-39155714D01*
X33567714Y-39250952D01*
X33520095Y-39298571D01*
X33424857Y-39346190D01*
X33043904Y-39346190D01*
X33996285Y-38917619D02*
X34043904Y-38870000D01*
X34139142Y-38822380D01*
X34377238Y-38822380D01*
X34472476Y-38870000D01*
X34520095Y-38917619D01*
X34567714Y-39012857D01*
X34567714Y-39108095D01*
X34520095Y-39250952D01*
X33948666Y-39822380D01*
X34567714Y-39822380D01*
X32170761Y-38044380D02*
X31599333Y-38044380D01*
X31885047Y-38044380D02*
X31885047Y-37044380D01*
X31789809Y-37187238D01*
X31694571Y-37282476D01*
X31599333Y-37330095D01*
X32789809Y-37044380D02*
X32885047Y-37044380D01*
X32980285Y-37092000D01*
X33027904Y-37139619D01*
X33075523Y-37234857D01*
X33123142Y-37425333D01*
X33123142Y-37663428D01*
X33075523Y-37853904D01*
X33027904Y-37949142D01*
X32980285Y-37996761D01*
X32885047Y-38044380D01*
X32789809Y-38044380D01*
X32694571Y-37996761D01*
X32646952Y-37949142D01*
X32599333Y-37853904D01*
X32551714Y-37663428D01*
X32551714Y-37425333D01*
X32599333Y-37234857D01*
X32646952Y-37139619D01*
X32694571Y-37092000D01*
X32789809Y-37044380D01*
X33551714Y-38044380D02*
X33551714Y-37044380D01*
X33646952Y-37663428D02*
X33932666Y-38044380D01*
X33932666Y-37377714D02*
X33551714Y-37758666D01*
X41997333Y-30932380D02*
X41664000Y-30456190D01*
X41425904Y-30932380D02*
X41425904Y-29932380D01*
X41806857Y-29932380D01*
X41902095Y-29980000D01*
X41949714Y-30027619D01*
X41997333Y-30122857D01*
X41997333Y-30265714D01*
X41949714Y-30360952D01*
X41902095Y-30408571D01*
X41806857Y-30456190D01*
X41425904Y-30456190D01*
X42949714Y-30932380D02*
X42378285Y-30932380D01*
X42664000Y-30932380D02*
X42664000Y-29932380D01*
X42568761Y-30075238D01*
X42473523Y-30170476D01*
X42378285Y-30218095D01*
X40584380Y-32853238D02*
X40584380Y-33424666D01*
X40584380Y-33138952D02*
X39584380Y-33138952D01*
X39727238Y-33234190D01*
X39822476Y-33329428D01*
X39870095Y-33424666D01*
X39584380Y-32234190D02*
X39584380Y-32138952D01*
X39632000Y-32043714D01*
X39679619Y-31996095D01*
X39774857Y-31948476D01*
X39965333Y-31900857D01*
X40203428Y-31900857D01*
X40393904Y-31948476D01*
X40489142Y-31996095D01*
X40536761Y-32043714D01*
X40584380Y-32138952D01*
X40584380Y-32234190D01*
X40536761Y-32329428D01*
X40489142Y-32377047D01*
X40393904Y-32424666D01*
X40203428Y-32472285D01*
X39965333Y-32472285D01*
X39774857Y-32424666D01*
X39679619Y-32377047D01*
X39632000Y-32329428D01*
X39584380Y-32234190D01*
X40584380Y-31472285D02*
X39584380Y-31472285D01*
X40203428Y-31377047D02*
X40584380Y-31091333D01*
X39917714Y-31091333D02*
X40298666Y-31472285D01*
D14*
X27626000Y-50182000D02*
X27626000Y-55642000D01*
X27626000Y-57642000D02*
X27626000Y-63102000D01*
X63306000Y-63102000D02*
X63306000Y-50182000D01*
X27566000Y-47692000D02*
X27566000Y-65592000D01*
X63366000Y-47692000D02*
X27566000Y-47692000D01*
X63366000Y-65592000D02*
X63366000Y-47692000D01*
X27566000Y-65592000D02*
X63366000Y-65592000D01*
X63306000Y-50182000D02*
X27626000Y-50182000D01*
X27626000Y-63102000D02*
X63306000Y-63102000D01*
X27626000Y-57642000D02*
G75*
G03*
X27626000Y-55642000I0J1000000D01*
G01*
X62290000Y-35416000D02*
X62290000Y-30116000D01*
X62290000Y-30116000D02*
X44390000Y-30116000D01*
X44390000Y-35416000D02*
X62290000Y-35416000D01*
X44390000Y-33766000D02*
X44390000Y-35416000D01*
X44390000Y-30116000D02*
X44390000Y-31766000D01*
X44390000Y-33766000D02*
G75*
G03*
X44390000Y-31766000I0J1000000D01*
G01*
X29356000Y-33502000D02*
X29356000Y-34622000D01*
X36177000Y-33502000D02*
X36177000Y-34622000D01*
X29356000Y-31012000D02*
X29356000Y-31523000D01*
X29356000Y-34622000D02*
X36177000Y-34622000D01*
X36177000Y-30962000D02*
X36177000Y-31523000D01*
X29356000Y-27862000D02*
X29356000Y-28932000D01*
X29116000Y-27622000D02*
X30499000Y-27622000D01*
X29356000Y-27862000D02*
X36177000Y-27862000D01*
X29116000Y-27622000D02*
X29116000Y-28932000D01*
X36177000Y-27862000D02*
X36177000Y-28982000D01*
X46537000Y-41506000D02*
X42497000Y-41506000D01*
X47227000Y-42926000D02*
X46537000Y-42926000D01*
X42497000Y-41506000D02*
X42497000Y-44346000D01*
X42497000Y-44346000D02*
X46537000Y-44346000D01*
X41807000Y-42926000D02*
X42497000Y-42926000D01*
X46537000Y-44346000D02*
X46537000Y-41506000D01*
X29896000Y-37592000D02*
X30846000Y-37592000D01*
X30846000Y-38512000D02*
X34686000Y-38512000D01*
X30846000Y-36672000D02*
X30846000Y-38512000D01*
X34686000Y-36672000D02*
X30846000Y-36672000D01*
X34686000Y-38512000D02*
X34686000Y-36672000D01*
X35636000Y-37592000D02*
X34686000Y-37592000D01*
X33466000Y-30718000D02*
X32066000Y-30718000D01*
X34166000Y-29418000D02*
X34166000Y-30018000D01*
X32066000Y-28718000D02*
X33466000Y-28718000D01*
X31366000Y-30018000D02*
X31366000Y-29418000D01*
X31366000Y-30018000D02*
G75*
G03*
X32066000Y-30718000I699999J-1D01*
G01*
X34166000Y-29418000D02*
G75*
G03*
X33466000Y-28718000I-700000J0D01*
G01*
X33466000Y-30718000D02*
G75*
G03*
X34166000Y-30018000I0J700000D01*
G01*
X32066000Y-28718000D02*
G75*
G03*
X31366000Y-29418000I-1J-699999D01*
G01*
X33466000Y-33766000D02*
X32066000Y-33766000D01*
X32066000Y-31766000D02*
X33466000Y-31766000D01*
X34166000Y-32466000D02*
X34166000Y-33066000D01*
X31366000Y-33066000D02*
X31366000Y-32466000D01*
X32066000Y-31766000D02*
G75*
G03*
X31366000Y-32466000I-1J-699999D01*
G01*
X34166000Y-32466000D02*
G75*
G03*
X33466000Y-31766000I-700000J0D01*
G01*
X33466000Y-33766000D02*
G75*
G03*
X34166000Y-33066000I0J700000D01*
G01*
X31366000Y-33066000D02*
G75*
G03*
X32066000Y-33766000I699999J-1D01*
G01*
X40132000Y-29388000D02*
X40132000Y-30338000D01*
X41052000Y-34178000D02*
X41052000Y-30338000D01*
X39212000Y-30338000D02*
X39212000Y-34178000D01*
X41052000Y-30338000D02*
X39212000Y-30338000D01*
X39212000Y-34178000D02*
X41052000Y-34178000D01*
X40132000Y-35128000D02*
X40132000Y-34178000D01*
M02*
