%TF.GenerationSoftware,KiCad,Pcbnew,(6.0.11)*%
%TF.CreationDate,2023-02-19T10:02:09-08:00*%
%TF.ProjectId,AtariCart,41746172-6943-4617-9274-2e6b69636164,rev?*%
%TF.SameCoordinates,Original*%
%TF.FileFunction,Drillmap*%
%TF.FilePolarity,Positive*%
%FSLAX45Y45*%
G04 Gerber Fmt 4.5, Leading zero omitted, Abs format (unit mm)*
G04 Created by KiCad (PCBNEW (6.0.11)) date 2023-02-19 10:02:09*
%MOMM*%
%LPD*%
G01*
G04 APERTURE LIST*
%ADD10C,0.050000*%
%ADD11C,0.200000*%
%ADD12C,0.040000*%
%ADD13C,0.070000*%
%ADD14C,0.080000*%
G04 APERTURE END LIST*
D10*
X2667000Y-8216900D02*
X6426200Y-8216900D01*
X6553200Y-2540000D02*
X6553200Y-8089900D01*
X3302000Y-4216400D02*
G75*
G03*
X3302000Y-4216400I-254000J0D01*
G01*
X2540000Y-8089900D02*
G75*
G03*
X2667000Y-8216900I127000J0D01*
G01*
X6426200Y-8216900D02*
G75*
G03*
X6553200Y-8089900I0J127000D01*
G01*
X2540000Y-2540000D02*
X2540000Y-8089900D01*
X2540000Y-2540000D02*
X6553200Y-2540000D01*
X6299200Y-4216400D02*
G75*
G03*
X6299200Y-4216400I-254000J0D01*
G01*
D11*
D12*
X3586800Y-6812600D02*
X3626800Y-6852600D01*
X3626800Y-6812600D02*
X3586800Y-6852600D01*
X3993200Y-6609400D02*
X4033200Y-6649400D01*
X4033200Y-6609400D02*
X3993200Y-6649400D01*
X4171000Y-7295200D02*
X4211000Y-7335200D01*
X4211000Y-7295200D02*
X4171000Y-7335200D01*
X5290350Y-5404890D02*
X5330350Y-5444890D01*
X5330350Y-5404890D02*
X5290350Y-5444890D01*
D13*
X2930600Y-3759200D02*
G75*
G03*
X2930600Y-3759200I-35000J0D01*
G01*
X3692600Y-3759200D02*
G75*
G03*
X3692600Y-3759200I-35000J0D01*
G01*
X4048200Y-2844800D02*
G75*
G03*
X4048200Y-2844800I-35000J0D01*
G01*
X4048200Y-3606800D02*
G75*
G03*
X4048200Y-3606800I-35000J0D01*
G01*
D14*
X2895600Y-2957200D02*
X2895600Y-3037200D01*
X2855600Y-2997200D02*
X2935600Y-2997200D01*
X2895600Y-3211200D02*
X2895600Y-3291200D01*
X2855600Y-3251200D02*
X2935600Y-3251200D01*
X2895600Y-4862200D02*
X2895600Y-4942200D01*
X2855600Y-4902200D02*
X2935600Y-4902200D01*
X2895600Y-6386200D02*
X2895600Y-6466200D01*
X2855600Y-6426200D02*
X2935600Y-6426200D01*
X3149600Y-4862200D02*
X3149600Y-4942200D01*
X3109600Y-4902200D02*
X3189600Y-4902200D01*
X3149600Y-6386200D02*
X3149600Y-6466200D01*
X3109600Y-6426200D02*
X3189600Y-6426200D01*
X3403600Y-4862200D02*
X3403600Y-4942200D01*
X3363600Y-4902200D02*
X3443600Y-4902200D01*
X3403600Y-6386200D02*
X3403600Y-6466200D01*
X3363600Y-6426200D02*
X3443600Y-6426200D01*
X3657600Y-2957200D02*
X3657600Y-3037200D01*
X3617600Y-2997200D02*
X3697600Y-2997200D01*
X3657600Y-3211200D02*
X3657600Y-3291200D01*
X3617600Y-3251200D02*
X3697600Y-3251200D01*
X3657600Y-4862200D02*
X3657600Y-4942200D01*
X3617600Y-4902200D02*
X3697600Y-4902200D01*
X3657600Y-6386200D02*
X3657600Y-6466200D01*
X3617600Y-6426200D02*
X3697600Y-6426200D01*
X3911600Y-4862200D02*
X3911600Y-4942200D01*
X3871600Y-4902200D02*
X3951600Y-4902200D01*
X3911600Y-6386200D02*
X3911600Y-6466200D01*
X3871600Y-6426200D02*
X3951600Y-6426200D01*
X4076700Y-4252600D02*
X4076700Y-4332600D01*
X4036700Y-4292600D02*
X4116700Y-4292600D01*
X4165600Y-4862200D02*
X4165600Y-4942200D01*
X4125600Y-4902200D02*
X4205600Y-4902200D01*
X4165600Y-6386200D02*
X4165600Y-6466200D01*
X4125600Y-6426200D02*
X4205600Y-6426200D01*
X4419600Y-4862200D02*
X4419600Y-4942200D01*
X4379600Y-4902200D02*
X4459600Y-4902200D01*
X4419600Y-6386200D02*
X4419600Y-6466200D01*
X4379600Y-6426200D02*
X4459600Y-6426200D01*
X4572000Y-2855600D02*
X4572000Y-2935600D01*
X4532000Y-2895600D02*
X4612000Y-2895600D01*
X4572000Y-3617600D02*
X4572000Y-3697600D01*
X4532000Y-3657600D02*
X4612000Y-3657600D01*
X4673600Y-4862200D02*
X4673600Y-4942200D01*
X4633600Y-4902200D02*
X4713600Y-4902200D01*
X4673600Y-6386200D02*
X4673600Y-6466200D01*
X4633600Y-6426200D02*
X4713600Y-6426200D01*
X4826000Y-2855600D02*
X4826000Y-2935600D01*
X4786000Y-2895600D02*
X4866000Y-2895600D01*
X4826000Y-3617600D02*
X4826000Y-3697600D01*
X4786000Y-3657600D02*
X4866000Y-3657600D01*
X4826700Y-4252600D02*
X4826700Y-4332600D01*
X4786700Y-4292600D02*
X4866700Y-4292600D01*
X4927600Y-4862200D02*
X4927600Y-4942200D01*
X4887600Y-4902200D02*
X4967600Y-4902200D01*
X4927600Y-6386200D02*
X4927600Y-6466200D01*
X4887600Y-6426200D02*
X4967600Y-6426200D01*
X5080000Y-2855600D02*
X5080000Y-2935600D01*
X5040000Y-2895600D02*
X5120000Y-2895600D01*
X5080000Y-3617600D02*
X5080000Y-3697600D01*
X5040000Y-3657600D02*
X5120000Y-3657600D01*
X5181600Y-4862200D02*
X5181600Y-4942200D01*
X5141600Y-4902200D02*
X5221600Y-4902200D01*
X5181600Y-6386200D02*
X5181600Y-6466200D01*
X5141600Y-6426200D02*
X5221600Y-6426200D01*
X5334000Y-2855600D02*
X5334000Y-2935600D01*
X5294000Y-2895600D02*
X5374000Y-2895600D01*
X5334000Y-3617600D02*
X5334000Y-3697600D01*
X5294000Y-3657600D02*
X5374000Y-3657600D01*
X5435600Y-4862200D02*
X5435600Y-4942200D01*
X5395600Y-4902200D02*
X5475600Y-4902200D01*
X5435600Y-6386200D02*
X5435600Y-6466200D01*
X5395600Y-6426200D02*
X5475600Y-6426200D01*
X5588000Y-2855600D02*
X5588000Y-2935600D01*
X5548000Y-2895600D02*
X5628000Y-2895600D01*
X5588000Y-3617600D02*
X5588000Y-3697600D01*
X5548000Y-3657600D02*
X5628000Y-3657600D01*
X5689600Y-4862200D02*
X5689600Y-4942200D01*
X5649600Y-4902200D02*
X5729600Y-4902200D01*
X5689600Y-6386200D02*
X5689600Y-6466200D01*
X5649600Y-6426200D02*
X5729600Y-6426200D01*
X5842000Y-2855600D02*
X5842000Y-2935600D01*
X5802000Y-2895600D02*
X5882000Y-2895600D01*
X5842000Y-3617600D02*
X5842000Y-3697600D01*
X5802000Y-3657600D02*
X5882000Y-3657600D01*
X5943600Y-4862200D02*
X5943600Y-4942200D01*
X5903600Y-4902200D02*
X5983600Y-4902200D01*
X5943600Y-6386200D02*
X5943600Y-6466200D01*
X5903600Y-6426200D02*
X5983600Y-6426200D01*
X6096000Y-2855600D02*
X6096000Y-2935600D01*
X6056000Y-2895600D02*
X6136000Y-2895600D01*
X6096000Y-3617600D02*
X6096000Y-3697600D01*
X6056000Y-3657600D02*
X6136000Y-3657600D01*
X6197600Y-4862200D02*
X6197600Y-4942200D01*
X6157600Y-4902200D02*
X6237600Y-4902200D01*
X6197600Y-6386200D02*
X6197600Y-6466200D01*
X6157600Y-6426200D02*
X6237600Y-6426200D01*
D11*
X2795119Y-8529876D02*
X2795119Y-8329876D01*
X2842738Y-8329876D01*
X2871309Y-8339400D01*
X2890357Y-8358448D01*
X2899881Y-8377495D01*
X2909405Y-8415590D01*
X2909405Y-8444162D01*
X2899881Y-8482257D01*
X2890357Y-8501305D01*
X2871309Y-8520352D01*
X2842738Y-8529876D01*
X2795119Y-8529876D01*
X2995119Y-8529876D02*
X2995119Y-8396543D01*
X2995119Y-8434638D02*
X3004643Y-8415590D01*
X3014167Y-8406067D01*
X3033214Y-8396543D01*
X3052262Y-8396543D01*
X3118928Y-8529876D02*
X3118928Y-8396543D01*
X3118928Y-8329876D02*
X3109405Y-8339400D01*
X3118928Y-8348924D01*
X3128452Y-8339400D01*
X3118928Y-8329876D01*
X3118928Y-8348924D01*
X3242738Y-8529876D02*
X3223690Y-8520352D01*
X3214167Y-8501305D01*
X3214167Y-8329876D01*
X3347500Y-8529876D02*
X3328452Y-8520352D01*
X3318928Y-8501305D01*
X3318928Y-8329876D01*
X3576071Y-8529876D02*
X3576071Y-8329876D01*
X3642738Y-8472733D01*
X3709405Y-8329876D01*
X3709405Y-8529876D01*
X3890357Y-8529876D02*
X3890357Y-8425114D01*
X3880833Y-8406067D01*
X3861786Y-8396543D01*
X3823690Y-8396543D01*
X3804643Y-8406067D01*
X3890357Y-8520352D02*
X3871309Y-8529876D01*
X3823690Y-8529876D01*
X3804643Y-8520352D01*
X3795119Y-8501305D01*
X3795119Y-8482257D01*
X3804643Y-8463210D01*
X3823690Y-8453686D01*
X3871309Y-8453686D01*
X3890357Y-8444162D01*
X3985595Y-8396543D02*
X3985595Y-8596543D01*
X3985595Y-8406067D02*
X4004643Y-8396543D01*
X4042738Y-8396543D01*
X4061786Y-8406067D01*
X4071309Y-8415590D01*
X4080833Y-8434638D01*
X4080833Y-8491781D01*
X4071309Y-8510829D01*
X4061786Y-8520352D01*
X4042738Y-8529876D01*
X4004643Y-8529876D01*
X3985595Y-8520352D01*
X4166548Y-8510829D02*
X4176071Y-8520352D01*
X4166548Y-8529876D01*
X4157024Y-8520352D01*
X4166548Y-8510829D01*
X4166548Y-8529876D01*
X4166548Y-8406067D02*
X4176071Y-8415590D01*
X4166548Y-8425114D01*
X4157024Y-8415590D01*
X4166548Y-8406067D01*
X4166548Y-8425114D01*
D12*
X2497500Y-8839400D02*
X2537500Y-8879400D01*
X2537500Y-8839400D02*
X2497500Y-8879400D01*
D11*
X2833214Y-8749876D02*
X2852262Y-8749876D01*
X2871309Y-8759400D01*
X2880833Y-8768924D01*
X2890357Y-8787971D01*
X2899881Y-8826067D01*
X2899881Y-8873686D01*
X2890357Y-8911781D01*
X2880833Y-8930829D01*
X2871309Y-8940352D01*
X2852262Y-8949876D01*
X2833214Y-8949876D01*
X2814167Y-8940352D01*
X2804643Y-8930829D01*
X2795119Y-8911781D01*
X2785595Y-8873686D01*
X2785595Y-8826067D01*
X2795119Y-8787971D01*
X2804643Y-8768924D01*
X2814167Y-8759400D01*
X2833214Y-8749876D01*
X2985595Y-8930829D02*
X2995119Y-8940352D01*
X2985595Y-8949876D01*
X2976071Y-8940352D01*
X2985595Y-8930829D01*
X2985595Y-8949876D01*
X3166548Y-8816543D02*
X3166548Y-8949876D01*
X3118928Y-8740352D02*
X3071309Y-8883210D01*
X3195119Y-8883210D01*
X3309405Y-8749876D02*
X3328452Y-8749876D01*
X3347500Y-8759400D01*
X3357024Y-8768924D01*
X3366548Y-8787971D01*
X3376071Y-8826067D01*
X3376071Y-8873686D01*
X3366548Y-8911781D01*
X3357024Y-8930829D01*
X3347500Y-8940352D01*
X3328452Y-8949876D01*
X3309405Y-8949876D01*
X3290357Y-8940352D01*
X3280833Y-8930829D01*
X3271309Y-8911781D01*
X3261786Y-8873686D01*
X3261786Y-8826067D01*
X3271309Y-8787971D01*
X3280833Y-8768924D01*
X3290357Y-8759400D01*
X3309405Y-8749876D01*
X3499881Y-8749876D02*
X3518928Y-8749876D01*
X3537976Y-8759400D01*
X3547500Y-8768924D01*
X3557024Y-8787971D01*
X3566548Y-8826067D01*
X3566548Y-8873686D01*
X3557024Y-8911781D01*
X3547500Y-8930829D01*
X3537976Y-8940352D01*
X3518928Y-8949876D01*
X3499881Y-8949876D01*
X3480833Y-8940352D01*
X3471309Y-8930829D01*
X3461786Y-8911781D01*
X3452262Y-8873686D01*
X3452262Y-8826067D01*
X3461786Y-8787971D01*
X3471309Y-8768924D01*
X3480833Y-8759400D01*
X3499881Y-8749876D01*
X3652262Y-8949876D02*
X3652262Y-8816543D01*
X3652262Y-8835590D02*
X3661786Y-8826067D01*
X3680833Y-8816543D01*
X3709405Y-8816543D01*
X3728452Y-8826067D01*
X3737976Y-8845114D01*
X3737976Y-8949876D01*
X3737976Y-8845114D02*
X3747500Y-8826067D01*
X3766548Y-8816543D01*
X3795119Y-8816543D01*
X3814167Y-8826067D01*
X3823690Y-8845114D01*
X3823690Y-8949876D01*
X3918928Y-8949876D02*
X3918928Y-8816543D01*
X3918928Y-8835590D02*
X3928452Y-8826067D01*
X3947500Y-8816543D01*
X3976071Y-8816543D01*
X3995119Y-8826067D01*
X4004643Y-8845114D01*
X4004643Y-8949876D01*
X4004643Y-8845114D02*
X4014167Y-8826067D01*
X4033214Y-8816543D01*
X4061786Y-8816543D01*
X4080833Y-8826067D01*
X4090357Y-8845114D01*
X4090357Y-8949876D01*
X4480833Y-8740352D02*
X4309405Y-8997495D01*
X4737976Y-8749876D02*
X4757024Y-8749876D01*
X4776071Y-8759400D01*
X4785595Y-8768924D01*
X4795119Y-8787971D01*
X4804643Y-8826067D01*
X4804643Y-8873686D01*
X4795119Y-8911781D01*
X4785595Y-8930829D01*
X4776071Y-8940352D01*
X4757024Y-8949876D01*
X4737976Y-8949876D01*
X4718929Y-8940352D01*
X4709405Y-8930829D01*
X4699881Y-8911781D01*
X4690357Y-8873686D01*
X4690357Y-8826067D01*
X4699881Y-8787971D01*
X4709405Y-8768924D01*
X4718929Y-8759400D01*
X4737976Y-8749876D01*
X4890357Y-8930829D02*
X4899881Y-8940352D01*
X4890357Y-8949876D01*
X4880833Y-8940352D01*
X4890357Y-8930829D01*
X4890357Y-8949876D01*
X5023690Y-8749876D02*
X5042738Y-8749876D01*
X5061786Y-8759400D01*
X5071310Y-8768924D01*
X5080833Y-8787971D01*
X5090357Y-8826067D01*
X5090357Y-8873686D01*
X5080833Y-8911781D01*
X5071310Y-8930829D01*
X5061786Y-8940352D01*
X5042738Y-8949876D01*
X5023690Y-8949876D01*
X5004643Y-8940352D01*
X4995119Y-8930829D01*
X4985595Y-8911781D01*
X4976071Y-8873686D01*
X4976071Y-8826067D01*
X4985595Y-8787971D01*
X4995119Y-8768924D01*
X5004643Y-8759400D01*
X5023690Y-8749876D01*
X5280833Y-8949876D02*
X5166548Y-8949876D01*
X5223690Y-8949876D02*
X5223690Y-8749876D01*
X5204643Y-8778448D01*
X5185595Y-8797495D01*
X5166548Y-8807019D01*
X5461786Y-8749876D02*
X5366548Y-8749876D01*
X5357024Y-8845114D01*
X5366548Y-8835590D01*
X5385595Y-8826067D01*
X5433214Y-8826067D01*
X5452262Y-8835590D01*
X5461786Y-8845114D01*
X5471310Y-8864162D01*
X5471310Y-8911781D01*
X5461786Y-8930829D01*
X5452262Y-8940352D01*
X5433214Y-8949876D01*
X5385595Y-8949876D01*
X5366548Y-8940352D01*
X5357024Y-8930829D01*
X5537976Y-8749876D02*
X5671309Y-8749876D01*
X5585595Y-8949876D01*
X5737976Y-8749876D02*
X5737976Y-8787971D01*
X5814167Y-8749876D02*
X5814167Y-8787971D01*
X6109405Y-9026067D02*
X6099881Y-9016543D01*
X6080833Y-8987971D01*
X6071309Y-8968924D01*
X6061786Y-8940352D01*
X6052262Y-8892733D01*
X6052262Y-8854638D01*
X6061786Y-8807019D01*
X6071309Y-8778448D01*
X6080833Y-8759400D01*
X6099881Y-8730829D01*
X6109405Y-8721305D01*
X6271309Y-8816543D02*
X6271309Y-8949876D01*
X6223690Y-8740352D02*
X6176071Y-8883210D01*
X6299881Y-8883210D01*
X6528452Y-8949876D02*
X6528452Y-8749876D01*
X6614167Y-8949876D02*
X6614167Y-8845114D01*
X6604643Y-8826067D01*
X6585595Y-8816543D01*
X6557024Y-8816543D01*
X6537976Y-8826067D01*
X6528452Y-8835590D01*
X6737976Y-8949876D02*
X6718928Y-8940352D01*
X6709405Y-8930829D01*
X6699881Y-8911781D01*
X6699881Y-8854638D01*
X6709405Y-8835590D01*
X6718928Y-8826067D01*
X6737976Y-8816543D01*
X6766548Y-8816543D01*
X6785595Y-8826067D01*
X6795119Y-8835590D01*
X6804643Y-8854638D01*
X6804643Y-8911781D01*
X6795119Y-8930829D01*
X6785595Y-8940352D01*
X6766548Y-8949876D01*
X6737976Y-8949876D01*
X6918928Y-8949876D02*
X6899881Y-8940352D01*
X6890357Y-8921305D01*
X6890357Y-8749876D01*
X7071309Y-8940352D02*
X7052262Y-8949876D01*
X7014167Y-8949876D01*
X6995119Y-8940352D01*
X6985595Y-8921305D01*
X6985595Y-8845114D01*
X6995119Y-8826067D01*
X7014167Y-8816543D01*
X7052262Y-8816543D01*
X7071309Y-8826067D01*
X7080833Y-8845114D01*
X7080833Y-8864162D01*
X6985595Y-8883210D01*
X7157024Y-8940352D02*
X7176071Y-8949876D01*
X7214167Y-8949876D01*
X7233214Y-8940352D01*
X7242738Y-8921305D01*
X7242738Y-8911781D01*
X7233214Y-8892733D01*
X7214167Y-8883210D01*
X7185595Y-8883210D01*
X7166548Y-8873686D01*
X7157024Y-8854638D01*
X7157024Y-8845114D01*
X7166548Y-8826067D01*
X7185595Y-8816543D01*
X7214167Y-8816543D01*
X7233214Y-8826067D01*
X7309405Y-9026067D02*
X7318928Y-9016543D01*
X7337976Y-8987971D01*
X7347500Y-8968924D01*
X7357024Y-8940352D01*
X7366548Y-8892733D01*
X7366548Y-8854638D01*
X7357024Y-8807019D01*
X7347500Y-8778448D01*
X7337976Y-8759400D01*
X7318928Y-8730829D01*
X7309405Y-8721305D01*
D13*
X2537500Y-9123400D02*
G75*
G03*
X2537500Y-9123400I-35000J0D01*
G01*
D11*
X2833214Y-9013876D02*
X2852262Y-9013876D01*
X2871309Y-9023400D01*
X2880833Y-9032924D01*
X2890357Y-9051971D01*
X2899881Y-9090067D01*
X2899881Y-9137686D01*
X2890357Y-9175781D01*
X2880833Y-9194829D01*
X2871309Y-9204352D01*
X2852262Y-9213876D01*
X2833214Y-9213876D01*
X2814167Y-9204352D01*
X2804643Y-9194829D01*
X2795119Y-9175781D01*
X2785595Y-9137686D01*
X2785595Y-9090067D01*
X2795119Y-9051971D01*
X2804643Y-9032924D01*
X2814167Y-9023400D01*
X2833214Y-9013876D01*
X2985595Y-9194829D02*
X2995119Y-9204352D01*
X2985595Y-9213876D01*
X2976071Y-9204352D01*
X2985595Y-9194829D01*
X2985595Y-9213876D01*
X3061786Y-9013876D02*
X3195119Y-9013876D01*
X3109405Y-9213876D01*
X3309405Y-9013876D02*
X3328452Y-9013876D01*
X3347500Y-9023400D01*
X3357024Y-9032924D01*
X3366548Y-9051971D01*
X3376071Y-9090067D01*
X3376071Y-9137686D01*
X3366548Y-9175781D01*
X3357024Y-9194829D01*
X3347500Y-9204352D01*
X3328452Y-9213876D01*
X3309405Y-9213876D01*
X3290357Y-9204352D01*
X3280833Y-9194829D01*
X3271309Y-9175781D01*
X3261786Y-9137686D01*
X3261786Y-9090067D01*
X3271309Y-9051971D01*
X3280833Y-9032924D01*
X3290357Y-9023400D01*
X3309405Y-9013876D01*
X3499881Y-9013876D02*
X3518928Y-9013876D01*
X3537976Y-9023400D01*
X3547500Y-9032924D01*
X3557024Y-9051971D01*
X3566548Y-9090067D01*
X3566548Y-9137686D01*
X3557024Y-9175781D01*
X3547500Y-9194829D01*
X3537976Y-9204352D01*
X3518928Y-9213876D01*
X3499881Y-9213876D01*
X3480833Y-9204352D01*
X3471309Y-9194829D01*
X3461786Y-9175781D01*
X3452262Y-9137686D01*
X3452262Y-9090067D01*
X3461786Y-9051971D01*
X3471309Y-9032924D01*
X3480833Y-9023400D01*
X3499881Y-9013876D01*
X3652262Y-9213876D02*
X3652262Y-9080543D01*
X3652262Y-9099590D02*
X3661786Y-9090067D01*
X3680833Y-9080543D01*
X3709405Y-9080543D01*
X3728452Y-9090067D01*
X3737976Y-9109114D01*
X3737976Y-9213876D01*
X3737976Y-9109114D02*
X3747500Y-9090067D01*
X3766548Y-9080543D01*
X3795119Y-9080543D01*
X3814167Y-9090067D01*
X3823690Y-9109114D01*
X3823690Y-9213876D01*
X3918928Y-9213876D02*
X3918928Y-9080543D01*
X3918928Y-9099590D02*
X3928452Y-9090067D01*
X3947500Y-9080543D01*
X3976071Y-9080543D01*
X3995119Y-9090067D01*
X4004643Y-9109114D01*
X4004643Y-9213876D01*
X4004643Y-9109114D02*
X4014167Y-9090067D01*
X4033214Y-9080543D01*
X4061786Y-9080543D01*
X4080833Y-9090067D01*
X4090357Y-9109114D01*
X4090357Y-9213876D01*
X4480833Y-9004352D02*
X4309405Y-9261495D01*
X4737976Y-9013876D02*
X4757024Y-9013876D01*
X4776071Y-9023400D01*
X4785595Y-9032924D01*
X4795119Y-9051971D01*
X4804643Y-9090067D01*
X4804643Y-9137686D01*
X4795119Y-9175781D01*
X4785595Y-9194829D01*
X4776071Y-9204352D01*
X4757024Y-9213876D01*
X4737976Y-9213876D01*
X4718929Y-9204352D01*
X4709405Y-9194829D01*
X4699881Y-9175781D01*
X4690357Y-9137686D01*
X4690357Y-9090067D01*
X4699881Y-9051971D01*
X4709405Y-9032924D01*
X4718929Y-9023400D01*
X4737976Y-9013876D01*
X4890357Y-9194829D02*
X4899881Y-9204352D01*
X4890357Y-9213876D01*
X4880833Y-9204352D01*
X4890357Y-9194829D01*
X4890357Y-9213876D01*
X5023690Y-9013876D02*
X5042738Y-9013876D01*
X5061786Y-9023400D01*
X5071310Y-9032924D01*
X5080833Y-9051971D01*
X5090357Y-9090067D01*
X5090357Y-9137686D01*
X5080833Y-9175781D01*
X5071310Y-9194829D01*
X5061786Y-9204352D01*
X5042738Y-9213876D01*
X5023690Y-9213876D01*
X5004643Y-9204352D01*
X4995119Y-9194829D01*
X4985595Y-9175781D01*
X4976071Y-9137686D01*
X4976071Y-9090067D01*
X4985595Y-9051971D01*
X4995119Y-9032924D01*
X5004643Y-9023400D01*
X5023690Y-9013876D01*
X5166548Y-9032924D02*
X5176071Y-9023400D01*
X5195119Y-9013876D01*
X5242738Y-9013876D01*
X5261786Y-9023400D01*
X5271310Y-9032924D01*
X5280833Y-9051971D01*
X5280833Y-9071019D01*
X5271310Y-9099590D01*
X5157024Y-9213876D01*
X5280833Y-9213876D01*
X5347500Y-9013876D02*
X5480833Y-9013876D01*
X5395119Y-9213876D01*
X5642738Y-9013876D02*
X5604643Y-9013876D01*
X5585595Y-9023400D01*
X5576071Y-9032924D01*
X5557024Y-9061495D01*
X5547500Y-9099590D01*
X5547500Y-9175781D01*
X5557024Y-9194829D01*
X5566548Y-9204352D01*
X5585595Y-9213876D01*
X5623690Y-9213876D01*
X5642738Y-9204352D01*
X5652262Y-9194829D01*
X5661786Y-9175781D01*
X5661786Y-9128162D01*
X5652262Y-9109114D01*
X5642738Y-9099590D01*
X5623690Y-9090067D01*
X5585595Y-9090067D01*
X5566548Y-9099590D01*
X5557024Y-9109114D01*
X5547500Y-9128162D01*
X5737976Y-9013876D02*
X5737976Y-9051971D01*
X5814167Y-9013876D02*
X5814167Y-9051971D01*
X6109405Y-9290067D02*
X6099881Y-9280543D01*
X6080833Y-9251971D01*
X6071309Y-9232924D01*
X6061786Y-9204352D01*
X6052262Y-9156733D01*
X6052262Y-9118638D01*
X6061786Y-9071019D01*
X6071309Y-9042448D01*
X6080833Y-9023400D01*
X6099881Y-8994829D01*
X6109405Y-8985305D01*
X6271309Y-9080543D02*
X6271309Y-9213876D01*
X6223690Y-9004352D02*
X6176071Y-9147210D01*
X6299881Y-9147210D01*
X6528452Y-9213876D02*
X6528452Y-9013876D01*
X6614167Y-9213876D02*
X6614167Y-9109114D01*
X6604643Y-9090067D01*
X6585595Y-9080543D01*
X6557024Y-9080543D01*
X6537976Y-9090067D01*
X6528452Y-9099590D01*
X6737976Y-9213876D02*
X6718928Y-9204352D01*
X6709405Y-9194829D01*
X6699881Y-9175781D01*
X6699881Y-9118638D01*
X6709405Y-9099590D01*
X6718928Y-9090067D01*
X6737976Y-9080543D01*
X6766548Y-9080543D01*
X6785595Y-9090067D01*
X6795119Y-9099590D01*
X6804643Y-9118638D01*
X6804643Y-9175781D01*
X6795119Y-9194829D01*
X6785595Y-9204352D01*
X6766548Y-9213876D01*
X6737976Y-9213876D01*
X6918928Y-9213876D02*
X6899881Y-9204352D01*
X6890357Y-9185305D01*
X6890357Y-9013876D01*
X7071309Y-9204352D02*
X7052262Y-9213876D01*
X7014167Y-9213876D01*
X6995119Y-9204352D01*
X6985595Y-9185305D01*
X6985595Y-9109114D01*
X6995119Y-9090067D01*
X7014167Y-9080543D01*
X7052262Y-9080543D01*
X7071309Y-9090067D01*
X7080833Y-9109114D01*
X7080833Y-9128162D01*
X6985595Y-9147210D01*
X7157024Y-9204352D02*
X7176071Y-9213876D01*
X7214167Y-9213876D01*
X7233214Y-9204352D01*
X7242738Y-9185305D01*
X7242738Y-9175781D01*
X7233214Y-9156733D01*
X7214167Y-9147210D01*
X7185595Y-9147210D01*
X7166548Y-9137686D01*
X7157024Y-9118638D01*
X7157024Y-9109114D01*
X7166548Y-9090067D01*
X7185595Y-9080543D01*
X7214167Y-9080543D01*
X7233214Y-9090067D01*
X7309405Y-9290067D02*
X7318928Y-9280543D01*
X7337976Y-9251971D01*
X7347500Y-9232924D01*
X7357024Y-9204352D01*
X7366548Y-9156733D01*
X7366548Y-9118638D01*
X7357024Y-9071019D01*
X7347500Y-9042448D01*
X7337976Y-9023400D01*
X7318928Y-8994829D01*
X7309405Y-8985305D01*
D14*
X2497500Y-9347400D02*
X2497500Y-9427400D01*
X2457500Y-9387400D02*
X2537500Y-9387400D01*
D11*
X2833214Y-9277876D02*
X2852262Y-9277876D01*
X2871309Y-9287400D01*
X2880833Y-9296924D01*
X2890357Y-9315971D01*
X2899881Y-9354067D01*
X2899881Y-9401686D01*
X2890357Y-9439781D01*
X2880833Y-9458829D01*
X2871309Y-9468352D01*
X2852262Y-9477876D01*
X2833214Y-9477876D01*
X2814167Y-9468352D01*
X2804643Y-9458829D01*
X2795119Y-9439781D01*
X2785595Y-9401686D01*
X2785595Y-9354067D01*
X2795119Y-9315971D01*
X2804643Y-9296924D01*
X2814167Y-9287400D01*
X2833214Y-9277876D01*
X2985595Y-9458829D02*
X2995119Y-9468352D01*
X2985595Y-9477876D01*
X2976071Y-9468352D01*
X2985595Y-9458829D01*
X2985595Y-9477876D01*
X3109405Y-9363590D02*
X3090357Y-9354067D01*
X3080833Y-9344543D01*
X3071309Y-9325495D01*
X3071309Y-9315971D01*
X3080833Y-9296924D01*
X3090357Y-9287400D01*
X3109405Y-9277876D01*
X3147500Y-9277876D01*
X3166548Y-9287400D01*
X3176071Y-9296924D01*
X3185595Y-9315971D01*
X3185595Y-9325495D01*
X3176071Y-9344543D01*
X3166548Y-9354067D01*
X3147500Y-9363590D01*
X3109405Y-9363590D01*
X3090357Y-9373114D01*
X3080833Y-9382638D01*
X3071309Y-9401686D01*
X3071309Y-9439781D01*
X3080833Y-9458829D01*
X3090357Y-9468352D01*
X3109405Y-9477876D01*
X3147500Y-9477876D01*
X3166548Y-9468352D01*
X3176071Y-9458829D01*
X3185595Y-9439781D01*
X3185595Y-9401686D01*
X3176071Y-9382638D01*
X3166548Y-9373114D01*
X3147500Y-9363590D01*
X3309405Y-9277876D02*
X3328452Y-9277876D01*
X3347500Y-9287400D01*
X3357024Y-9296924D01*
X3366548Y-9315971D01*
X3376071Y-9354067D01*
X3376071Y-9401686D01*
X3366548Y-9439781D01*
X3357024Y-9458829D01*
X3347500Y-9468352D01*
X3328452Y-9477876D01*
X3309405Y-9477876D01*
X3290357Y-9468352D01*
X3280833Y-9458829D01*
X3271309Y-9439781D01*
X3261786Y-9401686D01*
X3261786Y-9354067D01*
X3271309Y-9315971D01*
X3280833Y-9296924D01*
X3290357Y-9287400D01*
X3309405Y-9277876D01*
X3499881Y-9277876D02*
X3518928Y-9277876D01*
X3537976Y-9287400D01*
X3547500Y-9296924D01*
X3557024Y-9315971D01*
X3566548Y-9354067D01*
X3566548Y-9401686D01*
X3557024Y-9439781D01*
X3547500Y-9458829D01*
X3537976Y-9468352D01*
X3518928Y-9477876D01*
X3499881Y-9477876D01*
X3480833Y-9468352D01*
X3471309Y-9458829D01*
X3461786Y-9439781D01*
X3452262Y-9401686D01*
X3452262Y-9354067D01*
X3461786Y-9315971D01*
X3471309Y-9296924D01*
X3480833Y-9287400D01*
X3499881Y-9277876D01*
X3652262Y-9477876D02*
X3652262Y-9344543D01*
X3652262Y-9363590D02*
X3661786Y-9354067D01*
X3680833Y-9344543D01*
X3709405Y-9344543D01*
X3728452Y-9354067D01*
X3737976Y-9373114D01*
X3737976Y-9477876D01*
X3737976Y-9373114D02*
X3747500Y-9354067D01*
X3766548Y-9344543D01*
X3795119Y-9344543D01*
X3814167Y-9354067D01*
X3823690Y-9373114D01*
X3823690Y-9477876D01*
X3918928Y-9477876D02*
X3918928Y-9344543D01*
X3918928Y-9363590D02*
X3928452Y-9354067D01*
X3947500Y-9344543D01*
X3976071Y-9344543D01*
X3995119Y-9354067D01*
X4004643Y-9373114D01*
X4004643Y-9477876D01*
X4004643Y-9373114D02*
X4014167Y-9354067D01*
X4033214Y-9344543D01*
X4061786Y-9344543D01*
X4080833Y-9354067D01*
X4090357Y-9373114D01*
X4090357Y-9477876D01*
X4480833Y-9268352D02*
X4309405Y-9525495D01*
X4737976Y-9277876D02*
X4757024Y-9277876D01*
X4776071Y-9287400D01*
X4785595Y-9296924D01*
X4795119Y-9315971D01*
X4804643Y-9354067D01*
X4804643Y-9401686D01*
X4795119Y-9439781D01*
X4785595Y-9458829D01*
X4776071Y-9468352D01*
X4757024Y-9477876D01*
X4737976Y-9477876D01*
X4718929Y-9468352D01*
X4709405Y-9458829D01*
X4699881Y-9439781D01*
X4690357Y-9401686D01*
X4690357Y-9354067D01*
X4699881Y-9315971D01*
X4709405Y-9296924D01*
X4718929Y-9287400D01*
X4737976Y-9277876D01*
X4890357Y-9458829D02*
X4899881Y-9468352D01*
X4890357Y-9477876D01*
X4880833Y-9468352D01*
X4890357Y-9458829D01*
X4890357Y-9477876D01*
X5023690Y-9277876D02*
X5042738Y-9277876D01*
X5061786Y-9287400D01*
X5071310Y-9296924D01*
X5080833Y-9315971D01*
X5090357Y-9354067D01*
X5090357Y-9401686D01*
X5080833Y-9439781D01*
X5071310Y-9458829D01*
X5061786Y-9468352D01*
X5042738Y-9477876D01*
X5023690Y-9477876D01*
X5004643Y-9468352D01*
X4995119Y-9458829D01*
X4985595Y-9439781D01*
X4976071Y-9401686D01*
X4976071Y-9354067D01*
X4985595Y-9315971D01*
X4995119Y-9296924D01*
X5004643Y-9287400D01*
X5023690Y-9277876D01*
X5157024Y-9277876D02*
X5280833Y-9277876D01*
X5214167Y-9354067D01*
X5242738Y-9354067D01*
X5261786Y-9363590D01*
X5271310Y-9373114D01*
X5280833Y-9392162D01*
X5280833Y-9439781D01*
X5271310Y-9458829D01*
X5261786Y-9468352D01*
X5242738Y-9477876D01*
X5185595Y-9477876D01*
X5166548Y-9468352D01*
X5157024Y-9458829D01*
X5471310Y-9477876D02*
X5357024Y-9477876D01*
X5414167Y-9477876D02*
X5414167Y-9277876D01*
X5395119Y-9306448D01*
X5376071Y-9325495D01*
X5357024Y-9335019D01*
X5652262Y-9277876D02*
X5557024Y-9277876D01*
X5547500Y-9373114D01*
X5557024Y-9363590D01*
X5576071Y-9354067D01*
X5623690Y-9354067D01*
X5642738Y-9363590D01*
X5652262Y-9373114D01*
X5661786Y-9392162D01*
X5661786Y-9439781D01*
X5652262Y-9458829D01*
X5642738Y-9468352D01*
X5623690Y-9477876D01*
X5576071Y-9477876D01*
X5557024Y-9468352D01*
X5547500Y-9458829D01*
X5737976Y-9277876D02*
X5737976Y-9315971D01*
X5814167Y-9277876D02*
X5814167Y-9315971D01*
X6109405Y-9554067D02*
X6099881Y-9544543D01*
X6080833Y-9515971D01*
X6071309Y-9496924D01*
X6061786Y-9468352D01*
X6052262Y-9420733D01*
X6052262Y-9382638D01*
X6061786Y-9335019D01*
X6071309Y-9306448D01*
X6080833Y-9287400D01*
X6099881Y-9258829D01*
X6109405Y-9249305D01*
X6271309Y-9344543D02*
X6271309Y-9477876D01*
X6223690Y-9268352D02*
X6176071Y-9411210D01*
X6299881Y-9411210D01*
X6404643Y-9363590D02*
X6385595Y-9354067D01*
X6376071Y-9344543D01*
X6366548Y-9325495D01*
X6366548Y-9315971D01*
X6376071Y-9296924D01*
X6385595Y-9287400D01*
X6404643Y-9277876D01*
X6442738Y-9277876D01*
X6461786Y-9287400D01*
X6471309Y-9296924D01*
X6480833Y-9315971D01*
X6480833Y-9325495D01*
X6471309Y-9344543D01*
X6461786Y-9354067D01*
X6442738Y-9363590D01*
X6404643Y-9363590D01*
X6385595Y-9373114D01*
X6376071Y-9382638D01*
X6366548Y-9401686D01*
X6366548Y-9439781D01*
X6376071Y-9458829D01*
X6385595Y-9468352D01*
X6404643Y-9477876D01*
X6442738Y-9477876D01*
X6461786Y-9468352D01*
X6471309Y-9458829D01*
X6480833Y-9439781D01*
X6480833Y-9401686D01*
X6471309Y-9382638D01*
X6461786Y-9373114D01*
X6442738Y-9363590D01*
X6718928Y-9477876D02*
X6718928Y-9277876D01*
X6804643Y-9477876D02*
X6804643Y-9373114D01*
X6795119Y-9354067D01*
X6776071Y-9344543D01*
X6747500Y-9344543D01*
X6728452Y-9354067D01*
X6718928Y-9363590D01*
X6928452Y-9477876D02*
X6909405Y-9468352D01*
X6899881Y-9458829D01*
X6890357Y-9439781D01*
X6890357Y-9382638D01*
X6899881Y-9363590D01*
X6909405Y-9354067D01*
X6928452Y-9344543D01*
X6957024Y-9344543D01*
X6976071Y-9354067D01*
X6985595Y-9363590D01*
X6995119Y-9382638D01*
X6995119Y-9439781D01*
X6985595Y-9458829D01*
X6976071Y-9468352D01*
X6957024Y-9477876D01*
X6928452Y-9477876D01*
X7109405Y-9477876D02*
X7090357Y-9468352D01*
X7080833Y-9449305D01*
X7080833Y-9277876D01*
X7261786Y-9468352D02*
X7242738Y-9477876D01*
X7204643Y-9477876D01*
X7185595Y-9468352D01*
X7176071Y-9449305D01*
X7176071Y-9373114D01*
X7185595Y-9354067D01*
X7204643Y-9344543D01*
X7242738Y-9344543D01*
X7261786Y-9354067D01*
X7271309Y-9373114D01*
X7271309Y-9392162D01*
X7176071Y-9411210D01*
X7347500Y-9468352D02*
X7366548Y-9477876D01*
X7404643Y-9477876D01*
X7423690Y-9468352D01*
X7433214Y-9449305D01*
X7433214Y-9439781D01*
X7423690Y-9420733D01*
X7404643Y-9411210D01*
X7376071Y-9411210D01*
X7357024Y-9401686D01*
X7347500Y-9382638D01*
X7347500Y-9373114D01*
X7357024Y-9354067D01*
X7376071Y-9344543D01*
X7404643Y-9344543D01*
X7423690Y-9354067D01*
X7499881Y-9554067D02*
X7509405Y-9544543D01*
X7528452Y-9515971D01*
X7537976Y-9496924D01*
X7547500Y-9468352D01*
X7557024Y-9420733D01*
X7557024Y-9382638D01*
X7547500Y-9335019D01*
X7537976Y-9306448D01*
X7528452Y-9287400D01*
X7509405Y-9258829D01*
X7499881Y-9249305D01*
M02*
