G04 #@! TF.GenerationSoftware,KiCad,Pcbnew,(6.0.11)*
G04 #@! TF.CreationDate,2023-02-19T10:02:12-08:00*
G04 #@! TF.ProjectId,AtariCart,41746172-6943-4617-9274-2e6b69636164,rev?*
G04 #@! TF.SameCoordinates,Original*
G04 #@! TF.FileFunction,Legend,Bot*
G04 #@! TF.FilePolarity,Positive*
%FSLAX46Y46*%
G04 Gerber Fmt 4.6, Leading zero omitted, Abs format (unit mm)*
G04 Created by KiCad (PCBNEW (6.0.11)) date 2023-02-19 10:02:12*
%MOMM*%
%LPD*%
G01*
G04 APERTURE LIST*
%ADD10C,0.200000*%
%ADD11C,0.300000*%
G04 APERTURE END LIST*
D10*
X47298571Y-53398500D02*
X46584285Y-53398500D01*
X47441428Y-53827071D02*
X46941428Y-52327071D01*
X46441428Y-53827071D01*
X46155714Y-52827071D02*
X45584285Y-52827071D01*
X45941428Y-52327071D02*
X45941428Y-53612785D01*
X45870000Y-53755642D01*
X45727142Y-53827071D01*
X45584285Y-53827071D01*
X44441428Y-53827071D02*
X44441428Y-53041357D01*
X44512857Y-52898500D01*
X44655714Y-52827071D01*
X44941428Y-52827071D01*
X45084285Y-52898500D01*
X44441428Y-53755642D02*
X44584285Y-53827071D01*
X44941428Y-53827071D01*
X45084285Y-53755642D01*
X45155714Y-53612785D01*
X45155714Y-53469928D01*
X45084285Y-53327071D01*
X44941428Y-53255642D01*
X44584285Y-53255642D01*
X44441428Y-53184214D01*
X43727142Y-53827071D02*
X43727142Y-52827071D01*
X43727142Y-53112785D02*
X43655714Y-52969928D01*
X43584285Y-52898500D01*
X43441428Y-52827071D01*
X43298571Y-52827071D01*
X42798571Y-53827071D02*
X42798571Y-52827071D01*
X42798571Y-52327071D02*
X42870000Y-52398500D01*
X42798571Y-52469928D01*
X42727142Y-52398500D01*
X42798571Y-52327071D01*
X42798571Y-52469928D01*
X40298571Y-52827071D02*
X40298571Y-53827071D01*
X40655714Y-52255642D02*
X41012857Y-53327071D01*
X40084285Y-53327071D01*
X39227142Y-52327071D02*
X39084285Y-52327071D01*
X38941428Y-52398500D01*
X38870000Y-52469928D01*
X38798571Y-52612785D01*
X38727142Y-52898500D01*
X38727142Y-53255642D01*
X38798571Y-53541357D01*
X38870000Y-53684214D01*
X38941428Y-53755642D01*
X39084285Y-53827071D01*
X39227142Y-53827071D01*
X39370000Y-53755642D01*
X39441428Y-53684214D01*
X39512857Y-53541357D01*
X39584285Y-53255642D01*
X39584285Y-52898500D01*
X39512857Y-52612785D01*
X39441428Y-52469928D01*
X39370000Y-52398500D01*
X39227142Y-52327071D01*
X37798571Y-52327071D02*
X37655714Y-52327071D01*
X37512857Y-52398500D01*
X37441428Y-52469928D01*
X37370000Y-52612785D01*
X37298571Y-52898500D01*
X37298571Y-53255642D01*
X37370000Y-53541357D01*
X37441428Y-53684214D01*
X37512857Y-53755642D01*
X37655714Y-53827071D01*
X37798571Y-53827071D01*
X37941428Y-53755642D01*
X38012857Y-53684214D01*
X38084285Y-53541357D01*
X38155714Y-53255642D01*
X38155714Y-52898500D01*
X38084285Y-52612785D01*
X38012857Y-52469928D01*
X37941428Y-52398500D01*
X37798571Y-52327071D01*
X35584285Y-52255642D02*
X36870000Y-54184214D01*
X34870000Y-52969928D02*
X35012857Y-52898500D01*
X35084285Y-52827071D01*
X35155714Y-52684214D01*
X35155714Y-52612785D01*
X35084285Y-52469928D01*
X35012857Y-52398500D01*
X34870000Y-52327071D01*
X34584285Y-52327071D01*
X34441428Y-52398500D01*
X34370000Y-52469928D01*
X34298571Y-52612785D01*
X34298571Y-52684214D01*
X34370000Y-52827071D01*
X34441428Y-52898500D01*
X34584285Y-52969928D01*
X34870000Y-52969928D01*
X35012857Y-53041357D01*
X35084285Y-53112785D01*
X35155714Y-53255642D01*
X35155714Y-53541357D01*
X35084285Y-53684214D01*
X35012857Y-53755642D01*
X34870000Y-53827071D01*
X34584285Y-53827071D01*
X34441428Y-53755642D01*
X34370000Y-53684214D01*
X34298571Y-53541357D01*
X34298571Y-53255642D01*
X34370000Y-53112785D01*
X34441428Y-53041357D01*
X34584285Y-52969928D01*
X33370000Y-52327071D02*
X33227142Y-52327071D01*
X33084285Y-52398500D01*
X33012857Y-52469928D01*
X32941428Y-52612785D01*
X32870000Y-52898500D01*
X32870000Y-53255642D01*
X32941428Y-53541357D01*
X33012857Y-53684214D01*
X33084285Y-53755642D01*
X33227142Y-53827071D01*
X33370000Y-53827071D01*
X33512857Y-53755642D01*
X33584285Y-53684214D01*
X33655714Y-53541357D01*
X33727142Y-53255642D01*
X33727142Y-52898500D01*
X33655714Y-52612785D01*
X33584285Y-52469928D01*
X33512857Y-52398500D01*
X33370000Y-52327071D01*
X31941428Y-52327071D02*
X31798571Y-52327071D01*
X31655714Y-52398500D01*
X31584285Y-52469928D01*
X31512857Y-52612785D01*
X31441428Y-52898500D01*
X31441428Y-53255642D01*
X31512857Y-53541357D01*
X31584285Y-53684214D01*
X31655714Y-53755642D01*
X31798571Y-53827071D01*
X31941428Y-53827071D01*
X32084285Y-53755642D01*
X32155714Y-53684214D01*
X32227142Y-53541357D01*
X32298571Y-53255642D01*
X32298571Y-52898500D01*
X32227142Y-52612785D01*
X32155714Y-52469928D01*
X32084285Y-52398500D01*
X31941428Y-52327071D01*
X48084285Y-55242071D02*
X48084285Y-56242071D01*
X48441428Y-54670642D02*
X48798571Y-55742071D01*
X47870000Y-55742071D01*
X47441428Y-56242071D02*
X46655714Y-55242071D01*
X47441428Y-55242071D02*
X46655714Y-56242071D01*
X45298571Y-56242071D02*
X46155714Y-56242071D01*
X45727142Y-56242071D02*
X45727142Y-54742071D01*
X45870000Y-54956357D01*
X46012857Y-55099214D01*
X46155714Y-55170642D01*
X44012857Y-54742071D02*
X44298571Y-54742071D01*
X44441428Y-54813500D01*
X44512857Y-54884928D01*
X44655714Y-55099214D01*
X44727142Y-55384928D01*
X44727142Y-55956357D01*
X44655714Y-56099214D01*
X44584285Y-56170642D01*
X44441428Y-56242071D01*
X44155714Y-56242071D01*
X44012857Y-56170642D01*
X43941428Y-56099214D01*
X43870000Y-55956357D01*
X43870000Y-55599214D01*
X43941428Y-55456357D01*
X44012857Y-55384928D01*
X44155714Y-55313500D01*
X44441428Y-55313500D01*
X44584285Y-55384928D01*
X44655714Y-55456357D01*
X44727142Y-55599214D01*
X43227142Y-56242071D02*
X43227142Y-54742071D01*
X43084285Y-55670642D02*
X42655714Y-56242071D01*
X42655714Y-55242071D02*
X43227142Y-55813500D01*
X41512857Y-55456357D02*
X41298571Y-55527785D01*
X41227142Y-55599214D01*
X41155714Y-55742071D01*
X41155714Y-55956357D01*
X41227142Y-56099214D01*
X41298571Y-56170642D01*
X41441428Y-56242071D01*
X42012857Y-56242071D01*
X42012857Y-54742071D01*
X41512857Y-54742071D01*
X41370000Y-54813500D01*
X41298571Y-54884928D01*
X41227142Y-55027785D01*
X41227142Y-55170642D01*
X41298571Y-55313500D01*
X41370000Y-55384928D01*
X41512857Y-55456357D01*
X42012857Y-55456357D01*
X38727142Y-56170642D02*
X38870000Y-56242071D01*
X39155714Y-56242071D01*
X39298571Y-56170642D01*
X39370000Y-56099214D01*
X39441428Y-55956357D01*
X39441428Y-55527785D01*
X39370000Y-55384928D01*
X39298571Y-55313500D01*
X39155714Y-55242071D01*
X38870000Y-55242071D01*
X38727142Y-55313500D01*
X37441428Y-56242071D02*
X37441428Y-55456357D01*
X37512857Y-55313500D01*
X37655714Y-55242071D01*
X37941428Y-55242071D01*
X38084285Y-55313500D01*
X37441428Y-56170642D02*
X37584285Y-56242071D01*
X37941428Y-56242071D01*
X38084285Y-56170642D01*
X38155714Y-56027785D01*
X38155714Y-55884928D01*
X38084285Y-55742071D01*
X37941428Y-55670642D01*
X37584285Y-55670642D01*
X37441428Y-55599214D01*
X36727142Y-56242071D02*
X36727142Y-55242071D01*
X36727142Y-55527785D02*
X36655714Y-55384928D01*
X36584285Y-55313500D01*
X36441428Y-55242071D01*
X36298571Y-55242071D01*
X36012857Y-55242071D02*
X35441428Y-55242071D01*
X35798571Y-54742071D02*
X35798571Y-56027785D01*
X35727142Y-56170642D01*
X35584285Y-56242071D01*
X35441428Y-56242071D01*
X34941428Y-56242071D02*
X34941428Y-55242071D01*
X34941428Y-55527785D02*
X34870000Y-55384928D01*
X34798571Y-55313500D01*
X34655714Y-55242071D01*
X34512857Y-55242071D01*
X34012857Y-56242071D02*
X34012857Y-55242071D01*
X34012857Y-54742071D02*
X34084285Y-54813500D01*
X34012857Y-54884928D01*
X33941428Y-54813500D01*
X34012857Y-54742071D01*
X34012857Y-54884928D01*
X32655714Y-56242071D02*
X32655714Y-54742071D01*
X32655714Y-56170642D02*
X32798571Y-56242071D01*
X33084285Y-56242071D01*
X33227142Y-56170642D01*
X33298571Y-56099214D01*
X33370000Y-55956357D01*
X33370000Y-55527785D01*
X33298571Y-55384928D01*
X33227142Y-55313500D01*
X33084285Y-55242071D01*
X32798571Y-55242071D01*
X32655714Y-55313500D01*
X31298571Y-55242071D02*
X31298571Y-56456357D01*
X31370000Y-56599214D01*
X31441428Y-56670642D01*
X31584285Y-56742071D01*
X31798571Y-56742071D01*
X31941428Y-56670642D01*
X31298571Y-56170642D02*
X31441428Y-56242071D01*
X31727142Y-56242071D01*
X31870000Y-56170642D01*
X31941428Y-56099214D01*
X32012857Y-55956357D01*
X32012857Y-55527785D01*
X31941428Y-55384928D01*
X31870000Y-55313500D01*
X31727142Y-55242071D01*
X31441428Y-55242071D01*
X31298571Y-55313500D01*
X30012857Y-56170642D02*
X30155714Y-56242071D01*
X30441428Y-56242071D01*
X30584285Y-56170642D01*
X30655714Y-56027785D01*
X30655714Y-55456357D01*
X30584285Y-55313500D01*
X30441428Y-55242071D01*
X30155714Y-55242071D01*
X30012857Y-55313500D01*
X29941428Y-55456357D01*
X29941428Y-55599214D01*
X30655714Y-55742071D01*
D11*
X45578333Y-60652333D02*
X45328333Y-60735666D01*
X44911666Y-60735666D01*
X44745000Y-60652333D01*
X44661666Y-60569000D01*
X44578333Y-60402333D01*
X44578333Y-60235666D01*
X44661666Y-60069000D01*
X44745000Y-59985666D01*
X44911666Y-59902333D01*
X45245000Y-59819000D01*
X45411666Y-59735666D01*
X45495000Y-59652333D01*
X45578333Y-59485666D01*
X45578333Y-59319000D01*
X45495000Y-59152333D01*
X45411666Y-59069000D01*
X45245000Y-58985666D01*
X44828333Y-58985666D01*
X44578333Y-59069000D01*
X43828333Y-60735666D02*
X43828333Y-58985666D01*
X43411666Y-58985666D01*
X43161666Y-59069000D01*
X42995000Y-59235666D01*
X42911666Y-59402333D01*
X42828333Y-59735666D01*
X42828333Y-59985666D01*
X42911666Y-60319000D01*
X42995000Y-60485666D01*
X43161666Y-60652333D01*
X43411666Y-60735666D01*
X43828333Y-60735666D01*
X42161666Y-60652333D02*
X41911666Y-60735666D01*
X41495000Y-60735666D01*
X41328333Y-60652333D01*
X41245000Y-60569000D01*
X41161666Y-60402333D01*
X41161666Y-60235666D01*
X41245000Y-60069000D01*
X41328333Y-59985666D01*
X41495000Y-59902333D01*
X41828333Y-59819000D01*
X41995000Y-59735666D01*
X42078333Y-59652333D01*
X42161666Y-59485666D01*
X42161666Y-59319000D01*
X42078333Y-59152333D01*
X41995000Y-59069000D01*
X41828333Y-58985666D01*
X41411666Y-58985666D01*
X41161666Y-59069000D01*
X39161666Y-59152333D02*
X39078333Y-59069000D01*
X38911666Y-58985666D01*
X38495000Y-58985666D01*
X38328333Y-59069000D01*
X38245000Y-59152333D01*
X38161666Y-59319000D01*
X38161666Y-59485666D01*
X38245000Y-59735666D01*
X39245000Y-60735666D01*
X38161666Y-60735666D01*
X37078333Y-58985666D02*
X36911666Y-58985666D01*
X36745000Y-59069000D01*
X36661666Y-59152333D01*
X36578333Y-59319000D01*
X36495000Y-59652333D01*
X36495000Y-60069000D01*
X36578333Y-60402333D01*
X36661666Y-60569000D01*
X36745000Y-60652333D01*
X36911666Y-60735666D01*
X37078333Y-60735666D01*
X37245000Y-60652333D01*
X37328333Y-60569000D01*
X37411666Y-60402333D01*
X37495000Y-60069000D01*
X37495000Y-59652333D01*
X37411666Y-59319000D01*
X37328333Y-59152333D01*
X37245000Y-59069000D01*
X37078333Y-58985666D01*
X35828333Y-59152333D02*
X35745000Y-59069000D01*
X35578333Y-58985666D01*
X35161666Y-58985666D01*
X34995000Y-59069000D01*
X34911666Y-59152333D01*
X34828333Y-59319000D01*
X34828333Y-59485666D01*
X34911666Y-59735666D01*
X35911666Y-60735666D01*
X34828333Y-60735666D01*
X34161666Y-59152333D02*
X34078333Y-59069000D01*
X33911666Y-58985666D01*
X33495000Y-58985666D01*
X33328333Y-59069000D01*
X33245000Y-59152333D01*
X33161666Y-59319000D01*
X33161666Y-59485666D01*
X33245000Y-59735666D01*
X34245000Y-60735666D01*
X33161666Y-60735666D01*
G36*
X57161947Y-54649108D02*
G01*
X57161889Y-58362339D01*
X56122000Y-58362339D01*
X56122000Y-50935877D01*
X57162006Y-50935877D01*
X57161947Y-54649108D01*
G37*
G36*
X57107861Y-61205390D02*
G01*
X57118652Y-61241446D01*
X57130444Y-61280912D01*
X57142917Y-61322707D01*
X57155748Y-61365748D01*
X57168614Y-61408951D01*
X57181195Y-61451233D01*
X57193167Y-61491513D01*
X57204208Y-61528706D01*
X57213997Y-61561730D01*
X57222210Y-61589503D01*
X57228527Y-61610941D01*
X57232625Y-61624962D01*
X57234181Y-61630482D01*
X57234637Y-61632319D01*
X57237521Y-61642369D01*
X57242340Y-61658423D01*
X57248350Y-61677991D01*
X57252257Y-61690711D01*
X57258816Y-61712295D01*
X57267267Y-61740258D01*
X57277271Y-61773458D01*
X57288485Y-61810757D01*
X57300569Y-61851015D01*
X57313182Y-61893091D01*
X57325983Y-61935847D01*
X57338630Y-61978143D01*
X57350784Y-62018838D01*
X57362102Y-62056794D01*
X57372244Y-62090870D01*
X57380869Y-62119927D01*
X57387637Y-62142826D01*
X57392205Y-62158426D01*
X57394233Y-62165587D01*
X57395008Y-62168321D01*
X57398355Y-62178090D01*
X57398580Y-62178722D01*
X57401297Y-62187306D01*
X57406254Y-62203612D01*
X57412978Y-62226066D01*
X57420996Y-62253091D01*
X57429837Y-62283110D01*
X57431642Y-62289257D01*
X57440308Y-62318681D01*
X57448015Y-62344706D01*
X57454301Y-62365780D01*
X57458704Y-62380356D01*
X57460763Y-62386881D01*
X57460212Y-62387908D01*
X57455880Y-62389169D01*
X57446796Y-62390224D01*
X57432303Y-62391088D01*
X57411745Y-62391777D01*
X57384467Y-62392306D01*
X57349813Y-62392690D01*
X57307127Y-62392946D01*
X57255753Y-62393088D01*
X57195035Y-62393132D01*
X57169044Y-62393114D01*
X57119771Y-62392981D01*
X57074086Y-62392726D01*
X57032905Y-62392364D01*
X56997144Y-62391906D01*
X56967718Y-62391367D01*
X56945545Y-62390757D01*
X56931539Y-62390091D01*
X56926618Y-62389381D01*
X56926551Y-62388758D01*
X56926174Y-62386240D01*
X56925316Y-62382138D01*
X56923643Y-62375103D01*
X56920819Y-62363783D01*
X56916508Y-62346828D01*
X56910375Y-62322888D01*
X56902084Y-62290612D01*
X56900120Y-62282962D01*
X56892694Y-62253972D01*
X56884480Y-62221815D01*
X56875888Y-62188100D01*
X56867324Y-62154433D01*
X56859197Y-62122421D01*
X56851915Y-62093671D01*
X56845887Y-62069790D01*
X56841519Y-62052385D01*
X56839221Y-62043063D01*
X56838927Y-62041854D01*
X56836959Y-62034006D01*
X56833274Y-62019481D01*
X56827762Y-61997848D01*
X56820312Y-61968676D01*
X56810816Y-61931536D01*
X56799164Y-61885999D01*
X56785245Y-61831633D01*
X56768949Y-61768009D01*
X56762555Y-61742931D01*
X56755777Y-61716071D01*
X56750133Y-61693408D01*
X56746079Y-61676771D01*
X56744069Y-61667989D01*
X56741966Y-61658585D01*
X56738360Y-61645485D01*
X56735821Y-61637426D01*
X56733178Y-61627676D01*
X56730003Y-61613829D01*
X56727996Y-61605513D01*
X56724366Y-61592551D01*
X56723766Y-61591140D01*
X56722435Y-61589726D01*
X56719850Y-61588487D01*
X56715427Y-61587416D01*
X56708584Y-61586501D01*
X56698736Y-61585733D01*
X56685303Y-61585103D01*
X56667699Y-61584600D01*
X56645343Y-61584214D01*
X56617652Y-61583937D01*
X56584041Y-61583758D01*
X56543929Y-61583667D01*
X56496732Y-61583655D01*
X56441867Y-61583712D01*
X56378751Y-61583828D01*
X56306801Y-61583993D01*
X56225434Y-61584199D01*
X55729557Y-61585473D01*
X55703252Y-61682992D01*
X55701890Y-61688047D01*
X55693845Y-61718002D01*
X55686681Y-61744867D01*
X55680831Y-61767001D01*
X55676730Y-61782764D01*
X55674811Y-61790513D01*
X55673394Y-61796340D01*
X55669567Y-61811188D01*
X55663696Y-61833556D01*
X55656053Y-61862434D01*
X55646911Y-61896810D01*
X55636541Y-61935674D01*
X55625215Y-61978016D01*
X55613205Y-62022823D01*
X55600783Y-62069086D01*
X55588221Y-62115794D01*
X55575790Y-62161935D01*
X55563763Y-62206499D01*
X55552412Y-62248475D01*
X55542009Y-62286853D01*
X55532824Y-62320621D01*
X55525131Y-62348769D01*
X55519201Y-62370285D01*
X55515307Y-62384160D01*
X55513719Y-62389381D01*
X55511891Y-62389785D01*
X55501342Y-62390467D01*
X55482231Y-62391099D01*
X55455473Y-62391668D01*
X55421988Y-62392162D01*
X55382691Y-62392567D01*
X55338501Y-62392873D01*
X55290335Y-62393065D01*
X55239110Y-62393132D01*
X54966810Y-62393132D01*
X54970097Y-62379379D01*
X54973274Y-62368452D01*
X54977868Y-62356875D01*
X54979947Y-62351764D01*
X54979500Y-62348123D01*
X54978971Y-62345682D01*
X54982174Y-62337797D01*
X54985607Y-62330249D01*
X54989673Y-62317223D01*
X54989785Y-62316682D01*
X54992255Y-62307373D01*
X54997028Y-62290861D01*
X55003474Y-62269227D01*
X55010963Y-62244552D01*
X55018863Y-62218916D01*
X55026543Y-62194401D01*
X55033373Y-62173089D01*
X55034199Y-62170539D01*
X55037802Y-62159050D01*
X55039470Y-62153085D01*
X55039602Y-62152523D01*
X55041809Y-62145010D01*
X55046121Y-62131035D01*
X55051776Y-62113077D01*
X55053064Y-62109012D01*
X55058639Y-62091162D01*
X55062799Y-62077450D01*
X55064723Y-62070569D01*
X55065207Y-62068706D01*
X55068195Y-62058645D01*
X55073166Y-62042603D01*
X55079356Y-62023059D01*
X55082099Y-62014451D01*
X55087873Y-61996098D01*
X55092108Y-61982304D01*
X55094040Y-61975550D01*
X55095590Y-61969878D01*
X55099393Y-61957058D01*
X55104457Y-61940543D01*
X55108894Y-61926201D01*
X55112864Y-61913216D01*
X55114767Y-61906786D01*
X55117000Y-61900535D01*
X55117214Y-61900077D01*
X55119500Y-61893034D01*
X55119771Y-61892007D01*
X55121758Y-61886782D01*
X55122364Y-61885442D01*
X55124285Y-61878031D01*
X55125039Y-61875098D01*
X55128427Y-61863404D01*
X55133955Y-61845021D01*
X55141070Y-61821780D01*
X55149217Y-61795514D01*
X55153844Y-61780659D01*
X55161522Y-61755845D01*
X55167886Y-61735074D01*
X55172377Y-61720181D01*
X55174433Y-61712998D01*
X55175285Y-61709490D01*
X55176618Y-61704246D01*
X55177198Y-61700565D01*
X55177582Y-61698956D01*
X55180423Y-61690111D01*
X55185078Y-61676811D01*
X55187081Y-61671149D01*
X55191745Y-61657107D01*
X55194362Y-61647934D01*
X55195812Y-61642523D01*
X55199824Y-61628942D01*
X55205622Y-61609972D01*
X55212507Y-61587922D01*
X55218147Y-61569972D01*
X55223996Y-61551204D01*
X55228131Y-61537747D01*
X55229900Y-61531713D01*
X55231758Y-61526712D01*
X55232383Y-61525362D01*
X55234432Y-61517960D01*
X55235207Y-61515042D01*
X55238613Y-61503355D01*
X55244133Y-61484970D01*
X55251212Y-61461721D01*
X55259299Y-61435444D01*
X55263977Y-61420299D01*
X55271485Y-61395912D01*
X55277646Y-61375798D01*
X55281921Y-61361716D01*
X55283772Y-61355428D01*
X55284285Y-61353540D01*
X55287630Y-61342425D01*
X55292380Y-61327405D01*
X55297156Y-61312798D01*
X55300575Y-61302917D01*
X55301702Y-61299610D01*
X55304604Y-61287915D01*
X55304667Y-61287557D01*
X55306977Y-61278672D01*
X55311485Y-61263604D01*
X55317283Y-61245406D01*
X55317919Y-61243461D01*
X55323555Y-61225958D01*
X55327794Y-61212335D01*
X55329760Y-61205398D01*
X55330808Y-61201481D01*
X55334351Y-61189389D01*
X55339711Y-61171609D01*
X55342384Y-61162890D01*
X55890750Y-61162890D01*
X56228875Y-61162890D01*
X56260919Y-61162873D01*
X56316474Y-61162761D01*
X56368538Y-61162553D01*
X56416299Y-61162257D01*
X56458942Y-61161881D01*
X56495654Y-61161436D01*
X56525621Y-61160931D01*
X56548029Y-61160373D01*
X56562064Y-61159773D01*
X56566914Y-61159139D01*
X56565716Y-61153297D01*
X56562429Y-61139764D01*
X56557563Y-61120611D01*
X56551628Y-61097877D01*
X56545809Y-61075797D01*
X56540498Y-61055512D01*
X56536594Y-61040463D01*
X56534677Y-61032864D01*
X56534650Y-61032752D01*
X56532685Y-61024909D01*
X56528766Y-61009621D01*
X56523451Y-60989049D01*
X56517294Y-60965351D01*
X56511038Y-60941114D01*
X56505519Y-60919324D01*
X56501352Y-60902436D01*
X56499135Y-60892837D01*
X56496990Y-60883424D01*
X56493360Y-60870332D01*
X56491389Y-60863946D01*
X56489101Y-60855329D01*
X56488629Y-60853336D01*
X56486004Y-60842850D01*
X56481435Y-60824861D01*
X56475290Y-60800812D01*
X56467938Y-60772146D01*
X56459748Y-60740307D01*
X56455633Y-60724333D01*
X56447682Y-60693452D01*
X56440676Y-60666223D01*
X56435002Y-60644155D01*
X56431048Y-60628755D01*
X56429203Y-60621533D01*
X56428053Y-60617000D01*
X56424707Y-60604030D01*
X56423407Y-60599064D01*
X56417601Y-60576782D01*
X56411440Y-60553013D01*
X56405500Y-60529991D01*
X56400356Y-60509949D01*
X56396583Y-60495120D01*
X56394756Y-60487738D01*
X56394065Y-60484850D01*
X56391029Y-60472958D01*
X56387000Y-60457751D01*
X56385293Y-60451374D01*
X56381503Y-60436988D01*
X56379163Y-60427765D01*
X56377560Y-60421312D01*
X56374016Y-60407402D01*
X56369586Y-60390238D01*
X56366044Y-60376352D01*
X56361864Y-60359335D01*
X56359204Y-60347729D01*
X56357016Y-60338309D01*
X56353360Y-60325225D01*
X56351384Y-60318840D01*
X56349066Y-60310222D01*
X56347591Y-60304212D01*
X56344009Y-60290069D01*
X56338740Y-60269442D01*
X56332197Y-60243948D01*
X56324792Y-60215203D01*
X56317589Y-60187263D01*
X56310886Y-60161205D01*
X56305396Y-60139806D01*
X56301550Y-60124741D01*
X56299777Y-60117684D01*
X56298600Y-60112964D01*
X56295177Y-60099528D01*
X56290072Y-60079615D01*
X56283747Y-60055020D01*
X56276666Y-60027540D01*
X56269293Y-59998970D01*
X56262091Y-59971107D01*
X56255524Y-59945746D01*
X56250055Y-59924684D01*
X56246149Y-59909718D01*
X56244268Y-59902642D01*
X56244093Y-59902015D01*
X56241324Y-59891560D01*
X56237779Y-59877637D01*
X56236708Y-59873476D01*
X56234652Y-59867375D01*
X56232551Y-59865994D01*
X56229939Y-59870332D01*
X56226346Y-59881388D01*
X56221305Y-59900160D01*
X56214348Y-59927647D01*
X56210431Y-59943063D01*
X56204128Y-59967172D01*
X56198446Y-59988133D01*
X56194263Y-60002662D01*
X56192483Y-60008597D01*
X56187903Y-60025115D01*
X56184915Y-60037668D01*
X56184159Y-60041090D01*
X56180924Y-60054201D01*
X56175839Y-60073935D01*
X56169429Y-60098271D01*
X56162219Y-60125186D01*
X56158474Y-60139088D01*
X56151674Y-60164543D01*
X56145969Y-60186176D01*
X56141867Y-60202044D01*
X56139881Y-60210202D01*
X56139523Y-60211820D01*
X56138206Y-60217257D01*
X56135935Y-60226201D01*
X56132531Y-60239336D01*
X56127812Y-60257345D01*
X56121597Y-60280913D01*
X56113707Y-60310724D01*
X56103961Y-60347461D01*
X56092177Y-60391810D01*
X56078177Y-60444455D01*
X56061777Y-60506079D01*
X56057870Y-60520789D01*
X56051165Y-60546185D01*
X56045551Y-60567640D01*
X56041527Y-60583246D01*
X56039590Y-60591096D01*
X56037901Y-60598157D01*
X56034182Y-60612774D01*
X56029578Y-60630285D01*
X56024946Y-60647662D01*
X56016839Y-60678163D01*
X56008146Y-60710955D01*
X55999261Y-60744543D01*
X55990579Y-60777432D01*
X55982493Y-60808128D01*
X55975396Y-60835136D01*
X55969685Y-60856961D01*
X55965751Y-60872109D01*
X55963990Y-60879084D01*
X55963414Y-60881592D01*
X55961583Y-60889178D01*
X55959033Y-60899026D01*
X55955117Y-60913595D01*
X55949190Y-60935345D01*
X55945368Y-60949481D01*
X55941479Y-60964226D01*
X55939329Y-60972853D01*
X55939302Y-60972974D01*
X55937343Y-60980832D01*
X55933390Y-60996120D01*
X55928003Y-61016682D01*
X55921743Y-61040366D01*
X55921499Y-61041288D01*
X55915273Y-61064892D01*
X55909959Y-61085294D01*
X55906113Y-61100341D01*
X55904292Y-61107879D01*
X55903498Y-61111349D01*
X55902000Y-61115381D01*
X55901628Y-61115728D01*
X55900366Y-61119545D01*
X55898072Y-61129186D01*
X55894253Y-61146637D01*
X55890750Y-61162890D01*
X55342384Y-61162890D01*
X55346216Y-61150387D01*
X55350959Y-61134879D01*
X55356622Y-61115910D01*
X55360605Y-61101993D01*
X55362255Y-61095377D01*
X55363034Y-61092573D01*
X55368038Y-61084124D01*
X55370293Y-61080906D01*
X55370335Y-61077873D01*
X55369819Y-61076846D01*
X55371126Y-61069227D01*
X55375102Y-61056619D01*
X55377081Y-61051027D01*
X55381743Y-61036992D01*
X55384362Y-61027812D01*
X55385808Y-61022406D01*
X55389807Y-61008825D01*
X55395586Y-60989853D01*
X55402447Y-60967800D01*
X55408022Y-60949945D01*
X55413899Y-60930836D01*
X55418077Y-60916909D01*
X55419895Y-60910340D01*
X55420250Y-60908819D01*
X55423018Y-60898991D01*
X55427492Y-60884101D01*
X55432630Y-60867526D01*
X55437390Y-60852642D01*
X55440730Y-60842827D01*
X55441927Y-60839387D01*
X55444781Y-60829293D01*
X55445636Y-60825932D01*
X55449001Y-60814396D01*
X55453696Y-60799287D01*
X55453714Y-60799230D01*
X55459258Y-60781763D01*
X55466083Y-60760146D01*
X55473576Y-60736333D01*
X55481125Y-60712281D01*
X55488115Y-60689945D01*
X55493935Y-60671281D01*
X55497971Y-60658244D01*
X55499610Y-60652790D01*
X55500826Y-60647989D01*
X55504293Y-60635182D01*
X55508584Y-60619834D01*
X55512557Y-60606011D01*
X55515070Y-60597779D01*
X55516229Y-60594128D01*
X55517266Y-60589003D01*
X55517319Y-60588480D01*
X55519600Y-60581747D01*
X55524226Y-60570159D01*
X55525480Y-60567115D01*
X55529777Y-60555893D01*
X55531456Y-60550083D01*
X55532325Y-60545949D01*
X55535444Y-60534551D01*
X55540065Y-60518918D01*
X55543999Y-60505932D01*
X55547882Y-60492982D01*
X55549767Y-60486507D01*
X55551758Y-60481506D01*
X55552495Y-60479693D01*
X55554409Y-60471723D01*
X55555653Y-60466523D01*
X55559422Y-60453101D01*
X55564414Y-60436716D01*
X55565971Y-60431784D01*
X55571159Y-60415269D01*
X55574122Y-60405567D01*
X55575520Y-60400462D01*
X55576012Y-60397739D01*
X55576028Y-60397631D01*
X55577995Y-60391340D01*
X55582093Y-60380236D01*
X55586619Y-60367614D01*
X55589565Y-60357731D01*
X55589643Y-60357394D01*
X55592138Y-60348524D01*
X55596732Y-60333445D01*
X55602494Y-60315223D01*
X55603050Y-60313492D01*
X55608634Y-60295754D01*
X55612873Y-60281708D01*
X55614888Y-60274263D01*
X55615022Y-60273609D01*
X55617674Y-60263557D01*
X55622041Y-60248840D01*
X55626802Y-60233781D01*
X55630635Y-60222705D01*
X55631926Y-60219153D01*
X55634642Y-60210202D01*
X55635958Y-60205493D01*
X55639746Y-60192766D01*
X55645308Y-60174439D01*
X55651987Y-60152691D01*
X55657541Y-60134552D01*
X55662965Y-60116462D01*
X55666579Y-60103950D01*
X55667798Y-60099000D01*
X55668026Y-60097686D01*
X55670569Y-60089467D01*
X55675078Y-60076496D01*
X55676978Y-60071102D01*
X55681850Y-60056160D01*
X55684752Y-60045598D01*
X55685979Y-60040552D01*
X55690374Y-60025090D01*
X55696997Y-60003420D01*
X55705211Y-59977657D01*
X55706322Y-59974063D01*
X55707922Y-59967655D01*
X55709342Y-59962801D01*
X55713044Y-59952652D01*
X55716498Y-59942982D01*
X55719521Y-59932648D01*
X55720086Y-59930279D01*
X55721481Y-59925175D01*
X55723879Y-59917020D01*
X55727613Y-59904733D01*
X55733014Y-59887231D01*
X55740416Y-59863433D01*
X55750150Y-59832257D01*
X55762549Y-59792620D01*
X55768192Y-59774557D01*
X55773927Y-59756115D01*
X55777938Y-59743115D01*
X55779590Y-59737609D01*
X55780114Y-59735724D01*
X55782855Y-59726413D01*
X55787000Y-59712604D01*
X55789101Y-59705631D01*
X55792854Y-59693029D01*
X55794778Y-59686349D01*
X55797000Y-59680098D01*
X55797214Y-59679640D01*
X55799500Y-59672597D01*
X55799771Y-59671570D01*
X55801758Y-59666345D01*
X55802367Y-59665004D01*
X55804307Y-59657594D01*
X55804505Y-59656714D01*
X55807127Y-59647101D01*
X55811741Y-59631417D01*
X55817491Y-59612585D01*
X55818857Y-59608176D01*
X55824163Y-59590907D01*
X55827990Y-59578212D01*
X55829588Y-59572577D01*
X55830145Y-59570561D01*
X55833145Y-59560722D01*
X55838119Y-59544814D01*
X55844372Y-59525068D01*
X55847788Y-59514275D01*
X55853637Y-59495455D01*
X55857912Y-59481247D01*
X55859866Y-59474106D01*
X55859994Y-59473487D01*
X55862701Y-59463259D01*
X55867123Y-59448422D01*
X55871906Y-59433382D01*
X55875698Y-59422547D01*
X55877103Y-59418869D01*
X55879287Y-59412545D01*
X55882424Y-59404892D01*
X55889396Y-59390823D01*
X55898692Y-59373281D01*
X55908871Y-59354920D01*
X55918492Y-59338394D01*
X55926114Y-59326353D01*
X55927953Y-59323734D01*
X55946186Y-59301007D01*
X55968629Y-59277075D01*
X55992089Y-59255154D01*
X56013376Y-59238459D01*
X56016037Y-59236675D01*
X56030247Y-59227696D01*
X56046717Y-59217906D01*
X56063288Y-59208508D01*
X56077799Y-59200704D01*
X56088090Y-59195698D01*
X56092000Y-59194691D01*
X56093832Y-59194700D01*
X56102595Y-59192194D01*
X56116153Y-59187363D01*
X56139419Y-59180457D01*
X56173911Y-59174376D01*
X56212015Y-59171098D01*
X56250374Y-59170888D01*
X56285631Y-59174010D01*
X56312436Y-59179706D01*
X56348499Y-59191133D01*
X56385181Y-59206136D01*
X56418955Y-59223243D01*
X56446293Y-59240984D01*
X56447258Y-59241735D01*
X56457431Y-59250415D01*
X56470402Y-59262379D01*
X56484483Y-59275946D01*
X56497987Y-59289433D01*
X56509226Y-59301159D01*
X56516512Y-59309443D01*
X56518158Y-59312602D01*
X56517100Y-59312965D01*
X56519547Y-59316353D01*
X56522078Y-59318748D01*
X56530147Y-59329292D01*
X56540157Y-59344764D01*
X56550369Y-59362388D01*
X56559043Y-59379386D01*
X56560355Y-59382469D01*
X56565436Y-59396313D01*
X56572422Y-59416956D01*
X56580679Y-59442372D01*
X56589570Y-59470533D01*
X56598462Y-59499411D01*
X56606718Y-59526979D01*
X56613703Y-59551210D01*
X56618783Y-59570076D01*
X56618975Y-59570799D01*
X56621626Y-59579662D01*
X56625728Y-59592581D01*
X56626841Y-59596164D01*
X56630797Y-59609211D01*
X56637245Y-59630639D01*
X56645966Y-59659711D01*
X56656738Y-59695688D01*
X56669340Y-59737829D01*
X56683552Y-59785398D01*
X56699152Y-59837655D01*
X56715920Y-59893860D01*
X56733634Y-59953276D01*
X56752075Y-60015164D01*
X56762249Y-60049317D01*
X56780683Y-60111173D01*
X56798444Y-60170746D01*
X56815289Y-60227224D01*
X56830978Y-60279795D01*
X56845266Y-60327649D01*
X56857912Y-60369974D01*
X56868674Y-60405958D01*
X56877309Y-60434790D01*
X56883575Y-60455659D01*
X56887229Y-60467753D01*
X56891424Y-60481546D01*
X56899405Y-60507922D01*
X56908855Y-60539273D01*
X56919379Y-60574275D01*
X56930581Y-60611605D01*
X56942066Y-60649941D01*
X56953438Y-60687960D01*
X56964301Y-60724338D01*
X56974260Y-60757754D01*
X56982920Y-60786883D01*
X56989884Y-60810403D01*
X56994758Y-60826992D01*
X56997144Y-60835325D01*
X57000622Y-60847597D01*
X57005937Y-60865596D01*
X57011912Y-60885335D01*
X57012451Y-60887092D01*
X57017808Y-60904674D01*
X57021927Y-60918370D01*
X57023954Y-60925343D01*
X57024537Y-60927480D01*
X57026547Y-60934464D01*
X57029974Y-60946095D01*
X57035029Y-60963077D01*
X57041922Y-60986114D01*
X57050865Y-61015910D01*
X57062068Y-61053168D01*
X57075742Y-61098593D01*
X57092097Y-61152888D01*
X57093977Y-61159139D01*
X57098395Y-61173828D01*
X57107861Y-61205390D01*
G37*
G36*
X59295361Y-59448818D02*
G01*
X59295302Y-59660125D01*
X58907455Y-59660109D01*
X58519608Y-59660094D01*
X58519787Y-61026659D01*
X58519966Y-62393223D01*
X58269733Y-62391928D01*
X58019500Y-62390632D01*
X58019500Y-59660094D01*
X57631127Y-59660555D01*
X57577594Y-59660611D01*
X57512622Y-59660648D01*
X57456532Y-59660627D01*
X57408678Y-59660536D01*
X57368414Y-59660364D01*
X57335095Y-59660096D01*
X57308075Y-59659721D01*
X57286707Y-59659227D01*
X57270347Y-59658600D01*
X57258348Y-59657829D01*
X57250066Y-59656902D01*
X57244853Y-59655805D01*
X57242064Y-59654526D01*
X57241054Y-59653053D01*
X57240995Y-59652534D01*
X57240757Y-59644450D01*
X57240566Y-59627955D01*
X57240420Y-59604351D01*
X57240318Y-59574944D01*
X57240257Y-59541036D01*
X57240237Y-59503931D01*
X57240255Y-59464934D01*
X57240310Y-59425347D01*
X57240400Y-59386475D01*
X57240523Y-59349622D01*
X57240679Y-59316090D01*
X57240864Y-59287185D01*
X57241078Y-59264209D01*
X57241319Y-59248467D01*
X57241584Y-59241262D01*
X57243695Y-59241022D01*
X57254898Y-59240661D01*
X57275330Y-59240311D01*
X57304523Y-59239973D01*
X57342011Y-59239650D01*
X57387327Y-59239343D01*
X57440002Y-59239053D01*
X57499569Y-59238783D01*
X57565562Y-59238534D01*
X57637511Y-59238308D01*
X57714951Y-59238107D01*
X57797414Y-59237932D01*
X57884432Y-59237785D01*
X57975538Y-59237668D01*
X58070265Y-59237582D01*
X58168144Y-59237529D01*
X58268710Y-59237511D01*
X59295419Y-59237511D01*
X59295361Y-59448818D01*
G37*
G36*
X61153808Y-61228021D02*
G01*
X61163659Y-61260946D01*
X61171967Y-61288767D01*
X61178397Y-61310366D01*
X61182615Y-61324624D01*
X61184287Y-61330423D01*
X61185032Y-61333147D01*
X61188301Y-61342925D01*
X61190099Y-61348216D01*
X61193578Y-61360429D01*
X61193968Y-61361897D01*
X61196933Y-61372247D01*
X61202185Y-61390098D01*
X61209257Y-61413879D01*
X61217682Y-61442020D01*
X61226994Y-61472951D01*
X61234730Y-61498597D01*
X61246325Y-61537147D01*
X61255672Y-61568408D01*
X61263203Y-61593833D01*
X61269350Y-61614873D01*
X61274545Y-61632982D01*
X61275177Y-61635149D01*
X61278484Y-61646173D01*
X61283595Y-61663014D01*
X61289696Y-61682992D01*
X61292289Y-61691479D01*
X61297858Y-61709886D01*
X61301971Y-61723726D01*
X61303881Y-61730502D01*
X61303954Y-61730798D01*
X61306153Y-61738530D01*
X61310390Y-61752712D01*
X61315820Y-61770510D01*
X61318998Y-61780905D01*
X61325290Y-61801669D01*
X61333106Y-61827606D01*
X61342004Y-61857242D01*
X61351545Y-61889100D01*
X61361289Y-61921707D01*
X61370795Y-61953587D01*
X61379623Y-61983264D01*
X61387333Y-62009263D01*
X61393485Y-62030109D01*
X61397638Y-62044328D01*
X61399353Y-62050443D01*
X61400099Y-62053253D01*
X61403498Y-62063067D01*
X61404541Y-62065942D01*
X61408271Y-62077840D01*
X61412596Y-62093073D01*
X61414416Y-62099779D01*
X61418053Y-62113033D01*
X61420180Y-62120578D01*
X61422209Y-62127367D01*
X61426252Y-62140890D01*
X61431394Y-62158086D01*
X61432234Y-62160898D01*
X61437806Y-62179573D01*
X61445186Y-62204346D01*
X61453513Y-62232322D01*
X61461924Y-62260606D01*
X61463841Y-62267045D01*
X61472196Y-62294898D01*
X61480213Y-62321322D01*
X61487061Y-62343596D01*
X61491913Y-62358998D01*
X61495696Y-62371935D01*
X61498327Y-62384343D01*
X61498212Y-62390254D01*
X61497040Y-62390495D01*
X61487586Y-62391031D01*
X61469473Y-62391528D01*
X61443634Y-62391976D01*
X61411003Y-62392365D01*
X61372517Y-62392686D01*
X61329108Y-62392927D01*
X61281712Y-62393079D01*
X61231262Y-62393132D01*
X60967191Y-62393132D01*
X60963951Y-62379379D01*
X60963072Y-62375751D01*
X60959517Y-62361638D01*
X60954524Y-62342234D01*
X60948882Y-62320618D01*
X60945989Y-62309576D01*
X60941460Y-62292120D01*
X60938399Y-62280090D01*
X60937349Y-62275609D01*
X60937198Y-62274687D01*
X60935261Y-62268107D01*
X60933936Y-62263230D01*
X60930367Y-62249471D01*
X60924911Y-62228155D01*
X60917862Y-62200445D01*
X60909516Y-62167503D01*
X60900170Y-62130491D01*
X60890118Y-62090573D01*
X60883614Y-62064725D01*
X60872801Y-62021815D01*
X60862300Y-61980220D01*
X60852536Y-61941616D01*
X60843934Y-61907681D01*
X60836917Y-61880092D01*
X60831911Y-61860527D01*
X60831862Y-61860338D01*
X60825700Y-61836233D01*
X60820316Y-61814869D01*
X60816290Y-61798560D01*
X60814198Y-61789618D01*
X60813368Y-61786007D01*
X60810188Y-61773019D01*
X60805151Y-61752893D01*
X60798668Y-61727243D01*
X60791148Y-61697684D01*
X60783002Y-61665831D01*
X60774640Y-61633299D01*
X60766472Y-61601702D01*
X60761602Y-61582924D01*
X60265621Y-61584199D01*
X59769641Y-61585473D01*
X59755731Y-61635483D01*
X59751665Y-61650203D01*
X59746113Y-61670647D01*
X59741896Y-61686601D01*
X59739700Y-61695495D01*
X59739678Y-61695601D01*
X59737764Y-61703262D01*
X59733615Y-61719167D01*
X59727590Y-61741957D01*
X59720052Y-61770270D01*
X59711360Y-61802745D01*
X59701877Y-61838023D01*
X59701399Y-61839797D01*
X59691986Y-61874800D01*
X59683414Y-61906791D01*
X59676036Y-61934440D01*
X59670206Y-61956418D01*
X59666277Y-61971398D01*
X59664603Y-61978050D01*
X59663228Y-61983641D01*
X59659594Y-61997016D01*
X59654862Y-62013617D01*
X59651400Y-62025742D01*
X59647179Y-62041235D01*
X59644737Y-62051125D01*
X59643874Y-62054773D01*
X59640614Y-62067513D01*
X59635515Y-62086900D01*
X59629074Y-62111051D01*
X59621791Y-62138082D01*
X59617230Y-62154949D01*
X59610564Y-62179701D01*
X59605116Y-62200063D01*
X59601352Y-62214280D01*
X59599742Y-62220598D01*
X59599158Y-62223028D01*
X59596349Y-62233594D01*
X59592319Y-62248084D01*
X59590505Y-62254543D01*
X59586582Y-62268894D01*
X59584218Y-62278090D01*
X59582897Y-62283322D01*
X59579324Y-62296885D01*
X59574228Y-62315935D01*
X59568234Y-62338121D01*
X59553983Y-62390632D01*
X59280141Y-62391925D01*
X59272352Y-62391961D01*
X59214224Y-62392218D01*
X59165233Y-62392385D01*
X59124612Y-62392440D01*
X59091593Y-62392363D01*
X59065406Y-62392132D01*
X59045286Y-62391726D01*
X59030462Y-62391123D01*
X59020168Y-62390303D01*
X59013634Y-62389245D01*
X59010094Y-62387926D01*
X59008779Y-62386326D01*
X59008921Y-62384423D01*
X59010652Y-62378634D01*
X59017946Y-62354429D01*
X59027007Y-62324560D01*
X59036925Y-62292009D01*
X59046790Y-62259760D01*
X59055692Y-62230794D01*
X59062721Y-62208096D01*
X59066816Y-62194939D01*
X59072643Y-62176141D01*
X59076917Y-62162250D01*
X59078924Y-62155585D01*
X59079586Y-62153180D01*
X59082467Y-62142604D01*
X59086405Y-62128080D01*
X59088193Y-62121534D01*
X59092086Y-62107684D01*
X59094611Y-62099272D01*
X59095317Y-62096810D01*
X59095614Y-62091289D01*
X59096333Y-62088605D01*
X59101363Y-62081339D01*
X59105068Y-62076236D01*
X59105757Y-62073069D01*
X59106281Y-62069026D01*
X59109402Y-62056889D01*
X59114744Y-62038140D01*
X59121878Y-62014278D01*
X59130376Y-61986802D01*
X59138175Y-61961824D01*
X59146227Y-61935708D01*
X59152853Y-61913863D01*
X59157521Y-61898045D01*
X59159699Y-61890006D01*
X59160530Y-61886599D01*
X59164512Y-61873235D01*
X59169847Y-61857500D01*
X59172054Y-61851244D01*
X59176792Y-61836890D01*
X59179473Y-61827395D01*
X59179671Y-61826526D01*
X59182426Y-61816418D01*
X59187425Y-61799328D01*
X59194004Y-61777437D01*
X59201495Y-61752928D01*
X59209233Y-61727980D01*
X59216552Y-61704774D01*
X59222787Y-61685493D01*
X59227444Y-61671082D01*
X59231962Y-61656423D01*
X59234352Y-61647782D01*
X59234811Y-61645935D01*
X59237817Y-61635238D01*
X59242920Y-61617786D01*
X59249502Y-61595619D01*
X59256950Y-61570780D01*
X59264646Y-61545310D01*
X59271974Y-61521250D01*
X59278319Y-61500643D01*
X59283064Y-61485530D01*
X59285594Y-61477952D01*
X59286908Y-61474390D01*
X59289674Y-61465449D01*
X59291032Y-61460711D01*
X59294915Y-61447979D01*
X59300609Y-61429664D01*
X59307443Y-61407938D01*
X59313144Y-61389839D01*
X59318890Y-61371414D01*
X59322873Y-61358428D01*
X59324458Y-61352927D01*
X59324590Y-61352366D01*
X59326803Y-61344853D01*
X59331120Y-61330878D01*
X59336776Y-61312919D01*
X59338063Y-61308857D01*
X59343648Y-61291006D01*
X59347827Y-61277293D01*
X59349777Y-61270411D01*
X59351562Y-61263968D01*
X59356138Y-61248601D01*
X59363519Y-61224303D01*
X59373742Y-61190954D01*
X59382389Y-61162890D01*
X59928343Y-61162890D01*
X60267672Y-61162890D01*
X60300729Y-61162872D01*
X60356341Y-61162758D01*
X60408453Y-61162547D01*
X60456254Y-61162247D01*
X60498929Y-61161869D01*
X60535668Y-61161420D01*
X60565657Y-61160911D01*
X60588084Y-61160349D01*
X60602136Y-61159745D01*
X60607000Y-61159106D01*
X60606958Y-61158482D01*
X60605220Y-61150379D01*
X60601726Y-61137852D01*
X60601258Y-61136296D01*
X60597287Y-61122589D01*
X60594709Y-61112880D01*
X60593054Y-61106235D01*
X60589288Y-61091434D01*
X60583862Y-61070238D01*
X60577203Y-61044322D01*
X60569741Y-61015361D01*
X60562541Y-60987420D01*
X60555842Y-60961362D01*
X60550359Y-60939963D01*
X60546520Y-60924898D01*
X60544754Y-60917842D01*
X60544569Y-60917070D01*
X60542234Y-60907754D01*
X60537863Y-60890550D01*
X60531840Y-60866960D01*
X60524552Y-60838488D01*
X60516386Y-60806636D01*
X60507727Y-60772908D01*
X60498960Y-60738806D01*
X60490473Y-60705832D01*
X60482651Y-60675490D01*
X60475880Y-60649283D01*
X60470547Y-60628712D01*
X60467036Y-60615282D01*
X60465895Y-60610947D01*
X60460361Y-60589720D01*
X60453727Y-60564033D01*
X60446443Y-60535654D01*
X60438958Y-60506351D01*
X60431724Y-60477892D01*
X60425188Y-60452045D01*
X60419802Y-60430579D01*
X60416014Y-60415261D01*
X60414275Y-60407860D01*
X60413476Y-60404282D01*
X60412000Y-60400240D01*
X60411468Y-60399382D01*
X60409674Y-60392738D01*
X60409532Y-60392106D01*
X60407439Y-60383610D01*
X60403248Y-60366996D01*
X60397287Y-60343555D01*
X60389887Y-60314582D01*
X60381377Y-60281369D01*
X60372086Y-60245209D01*
X60360747Y-60201131D01*
X60347578Y-60149920D01*
X60336573Y-60107101D01*
X60327545Y-60071935D01*
X60320303Y-60043680D01*
X60314657Y-60021596D01*
X60310418Y-60004942D01*
X60307397Y-59992978D01*
X60305404Y-59984963D01*
X60304250Y-59980157D01*
X60301424Y-59968223D01*
X60294770Y-59941840D01*
X60288043Y-59917169D01*
X60281729Y-59895811D01*
X60276315Y-59879368D01*
X60272285Y-59869442D01*
X60270125Y-59867635D01*
X60270122Y-59867643D01*
X60268243Y-59874025D01*
X60264222Y-59888610D01*
X60258445Y-59909934D01*
X60251301Y-59936532D01*
X60243178Y-59966939D01*
X60234466Y-59999692D01*
X60225551Y-60033323D01*
X60216823Y-60066370D01*
X60208670Y-60097366D01*
X60201479Y-60124848D01*
X60195639Y-60147349D01*
X60191539Y-60163406D01*
X60189567Y-60171554D01*
X60188043Y-60177787D01*
X60184277Y-60192400D01*
X60178773Y-60213409D01*
X60171983Y-60239089D01*
X60164359Y-60267714D01*
X60157492Y-60293446D01*
X60150611Y-60319317D01*
X60144969Y-60340620D01*
X60141016Y-60355658D01*
X60139201Y-60362732D01*
X60139126Y-60363045D01*
X60137091Y-60370967D01*
X60132955Y-60386766D01*
X60127145Y-60408824D01*
X60120085Y-60435525D01*
X60112203Y-60465253D01*
X60111454Y-60468073D01*
X60103584Y-60497817D01*
X60096550Y-60524580D01*
X60090785Y-60546690D01*
X60086726Y-60562479D01*
X60084809Y-60570273D01*
X60083000Y-60577913D01*
X60078730Y-60594762D01*
X60072846Y-60617314D01*
X60065939Y-60643334D01*
X60058598Y-60670588D01*
X60051413Y-60696842D01*
X60050787Y-60699112D01*
X60045699Y-60717791D01*
X60041644Y-60733077D01*
X60039450Y-60741850D01*
X60038117Y-60747398D01*
X60034603Y-60761082D01*
X60030153Y-60777814D01*
X60025798Y-60794043D01*
X60019341Y-60818329D01*
X60011657Y-60847383D01*
X60003126Y-60879761D01*
X59994125Y-60914020D01*
X59985032Y-60948715D01*
X59976225Y-60982403D01*
X59968081Y-61013640D01*
X59960979Y-61040982D01*
X59955297Y-61062985D01*
X59951412Y-61078206D01*
X59949703Y-61085200D01*
X59947380Y-61094734D01*
X59943149Y-61110591D01*
X59937971Y-61129133D01*
X59928343Y-61162890D01*
X59382389Y-61162890D01*
X59386845Y-61148430D01*
X59402864Y-61096608D01*
X59421839Y-61035365D01*
X59428444Y-61014008D01*
X59438007Y-60982869D01*
X59446359Y-60955413D01*
X59453056Y-60933109D01*
X59457658Y-60917420D01*
X59459721Y-60909813D01*
X59460546Y-60906405D01*
X59464517Y-60893041D01*
X59469847Y-60877307D01*
X59472081Y-60870983D01*
X59476760Y-60856886D01*
X59479362Y-60847776D01*
X59480808Y-60842371D01*
X59484807Y-60828790D01*
X59490586Y-60809818D01*
X59497447Y-60787765D01*
X59503022Y-60769909D01*
X59508895Y-60750800D01*
X59513066Y-60736873D01*
X59514876Y-60730305D01*
X59515081Y-60729470D01*
X59517545Y-60720915D01*
X59522387Y-60704727D01*
X59529155Y-60682397D01*
X59537396Y-60655419D01*
X59546660Y-60625284D01*
X59546783Y-60624885D01*
X59557256Y-60590862D01*
X59567838Y-60556385D01*
X59577764Y-60523956D01*
X59586268Y-60496079D01*
X59592584Y-60475255D01*
X59597166Y-60460101D01*
X59603154Y-60440405D01*
X59607729Y-60425485D01*
X59610158Y-60417743D01*
X59611295Y-60414139D01*
X59612922Y-60407741D01*
X59614342Y-60402887D01*
X59618044Y-60392738D01*
X59621518Y-60383073D01*
X59624616Y-60372734D01*
X59625951Y-60367931D01*
X59629916Y-60354598D01*
X59635926Y-60334799D01*
X59643455Y-60310262D01*
X59651979Y-60282717D01*
X59658804Y-60260723D01*
X59666502Y-60235843D01*
X59672766Y-60215520D01*
X59677081Y-60201417D01*
X59678937Y-60195199D01*
X59679145Y-60194453D01*
X59681721Y-60185904D01*
X59686304Y-60171083D01*
X59692061Y-60152691D01*
X59693392Y-60148456D01*
X59698878Y-60130895D01*
X59702949Y-60117690D01*
X59704807Y-60111433D01*
X59706758Y-60106432D01*
X59707364Y-60105092D01*
X59709285Y-60097680D01*
X59710037Y-60094750D01*
X59713420Y-60083057D01*
X59718941Y-60064673D01*
X59726045Y-60041431D01*
X59734180Y-60015164D01*
X59738662Y-60000720D01*
X59746426Y-59975375D01*
X59752911Y-59953793D01*
X59757543Y-59937900D01*
X59759746Y-59929620D01*
X59760565Y-59926211D01*
X59764522Y-59912847D01*
X59769847Y-59897114D01*
X59772081Y-59890790D01*
X59776760Y-59876693D01*
X59779362Y-59867583D01*
X59780812Y-59862172D01*
X59784824Y-59848591D01*
X59790622Y-59829621D01*
X59797507Y-59807572D01*
X59803174Y-59789529D01*
X59808904Y-59771102D01*
X59812876Y-59758114D01*
X59814458Y-59752612D01*
X59814590Y-59752051D01*
X59816803Y-59744538D01*
X59821120Y-59730563D01*
X59826776Y-59712604D01*
X59828064Y-59708539D01*
X59833640Y-59690690D01*
X59837802Y-59676978D01*
X59839729Y-59670096D01*
X59840538Y-59666959D01*
X59843965Y-59655117D01*
X59849367Y-59637106D01*
X59856082Y-59615085D01*
X59863445Y-59591212D01*
X59870792Y-59567647D01*
X59877461Y-59546546D01*
X59882787Y-59530068D01*
X59887409Y-59515693D01*
X59892098Y-59500248D01*
X59894694Y-59490578D01*
X59896319Y-59483876D01*
X59900848Y-59467781D01*
X59906173Y-59450577D01*
X59910698Y-59437550D01*
X59912080Y-59433918D01*
X59914694Y-59426298D01*
X59917000Y-59420047D01*
X59919321Y-59413796D01*
X59921757Y-59406964D01*
X59929327Y-59390303D01*
X59939752Y-59370140D01*
X59951400Y-59349572D01*
X59962635Y-59331696D01*
X59983038Y-59304880D01*
X60017642Y-59268972D01*
X60056898Y-59236992D01*
X60098381Y-59210847D01*
X60139666Y-59192445D01*
X60187843Y-59179276D01*
X60246213Y-59171732D01*
X60304443Y-59172840D01*
X60361081Y-59182449D01*
X60414676Y-59200406D01*
X60463776Y-59226557D01*
X60480594Y-59238496D01*
X60500472Y-59254505D01*
X60520247Y-59272034D01*
X60538353Y-59289559D01*
X60553224Y-59305561D01*
X60563296Y-59318515D01*
X60567001Y-59326901D01*
X60567053Y-59327664D01*
X60571376Y-59333363D01*
X60571583Y-59333446D01*
X60578538Y-59340250D01*
X60587159Y-59355591D01*
X60597523Y-59379676D01*
X60609706Y-59412711D01*
X60623783Y-59454902D01*
X60639832Y-59506455D01*
X60657927Y-59567576D01*
X60659881Y-59574211D01*
X60664695Y-59590365D01*
X60671374Y-59612654D01*
X60679314Y-59639068D01*
X60687912Y-59667596D01*
X60694411Y-59689190D01*
X60701999Y-59714578D01*
X60708224Y-59735602D01*
X60712570Y-59750525D01*
X60714527Y-59757613D01*
X60715409Y-59761099D01*
X60717000Y-59765115D01*
X60717552Y-59765979D01*
X60719467Y-59772616D01*
X60721182Y-59778794D01*
X60725420Y-59793344D01*
X60731767Y-59814846D01*
X60739825Y-59841957D01*
X60749197Y-59873336D01*
X60759484Y-59907643D01*
X60774332Y-59957080D01*
X60791740Y-60015104D01*
X60806806Y-60065401D01*
X60819439Y-60107662D01*
X60829547Y-60141581D01*
X60837037Y-60166848D01*
X60841819Y-60183156D01*
X60843799Y-60190198D01*
X60844630Y-60193319D01*
X60847996Y-60204989D01*
X60852882Y-60221423D01*
X60858336Y-60239462D01*
X60863406Y-60255945D01*
X60867142Y-60267714D01*
X60867163Y-60267779D01*
X60870646Y-60278902D01*
X60875794Y-60295936D01*
X60881499Y-60315223D01*
X60885623Y-60329187D01*
X60892169Y-60351183D01*
X60900612Y-60379450D01*
X60910453Y-60412325D01*
X60921196Y-60448148D01*
X60932344Y-60485257D01*
X60933229Y-60488199D01*
X60943987Y-60524011D01*
X60953990Y-60557371D01*
X60962814Y-60586853D01*
X60970030Y-60611033D01*
X60975215Y-60628486D01*
X60977942Y-60637787D01*
X60979135Y-60641916D01*
X60983450Y-60656605D01*
X60989690Y-60677676D01*
X60997213Y-60702964D01*
X61005376Y-60730305D01*
X61013205Y-60756489D01*
X61025666Y-60798221D01*
X61037173Y-60836828D01*
X61047407Y-60871237D01*
X61056049Y-60900369D01*
X61062779Y-60923149D01*
X61067277Y-60938500D01*
X61069225Y-60945347D01*
X61069994Y-60948068D01*
X61073301Y-60957850D01*
X61075092Y-60963135D01*
X61078541Y-60975353D01*
X61080125Y-60981022D01*
X61084339Y-60995468D01*
X61090788Y-61017309D01*
X61099126Y-61045384D01*
X61109009Y-61078530D01*
X61120091Y-61115586D01*
X61132027Y-61155388D01*
X61133143Y-61159106D01*
X61142747Y-61191111D01*
X61153808Y-61228021D01*
G37*
G36*
X52129500Y-59249641D02*
G01*
X52374500Y-59250013D01*
X52374945Y-60821573D01*
X52375390Y-62393132D01*
X52126195Y-62393132D01*
X52116177Y-62393129D01*
X52067855Y-62393028D01*
X52022877Y-62392793D01*
X51982194Y-62392439D01*
X51946757Y-62391980D01*
X51917517Y-62391430D01*
X51895424Y-62390805D01*
X51881429Y-62390117D01*
X51876484Y-62389381D01*
X51876460Y-62387665D01*
X51876415Y-62377006D01*
X51876366Y-62356937D01*
X51876314Y-62327837D01*
X51876259Y-62290085D01*
X51876201Y-62244061D01*
X51876141Y-62190145D01*
X51876079Y-62128715D01*
X51876016Y-62060153D01*
X51875951Y-61984836D01*
X51875885Y-61903145D01*
X51875818Y-61815458D01*
X51875751Y-61722157D01*
X51875684Y-61623619D01*
X51875617Y-61520225D01*
X51875550Y-61412354D01*
X51875484Y-61300385D01*
X51875419Y-61184699D01*
X51875356Y-61065674D01*
X51875294Y-60943691D01*
X51875234Y-60819128D01*
X51875182Y-60689407D01*
X51875146Y-60525853D01*
X51875146Y-60372105D01*
X51875182Y-60228175D01*
X51875255Y-60094077D01*
X51875364Y-59969821D01*
X51875510Y-59855420D01*
X51875692Y-59750886D01*
X51875910Y-59656232D01*
X51876164Y-59571470D01*
X51876455Y-59496612D01*
X51876782Y-59431671D01*
X51877145Y-59376657D01*
X51877544Y-59331585D01*
X51877979Y-59296465D01*
X51878450Y-59271311D01*
X51878957Y-59256134D01*
X51879500Y-59250947D01*
X51879683Y-59250908D01*
X51886621Y-59250587D01*
X51902464Y-59250302D01*
X51926229Y-59250058D01*
X51956934Y-59249861D01*
X51993596Y-59249716D01*
X52035233Y-59249628D01*
X52080862Y-59249601D01*
X52129500Y-59249641D01*
G37*
G36*
X57902310Y-51104660D02*
G01*
X57902569Y-51178913D01*
X57903962Y-51339722D01*
X57906464Y-51498201D01*
X57910038Y-51653078D01*
X57914647Y-51803082D01*
X57920255Y-51946939D01*
X57926823Y-52083379D01*
X57934316Y-52211128D01*
X57934771Y-52218217D01*
X57936207Y-52241014D01*
X57937858Y-52267624D01*
X57939450Y-52293644D01*
X57940156Y-52305034D01*
X57941785Y-52329927D01*
X57943362Y-52352396D01*
X57944625Y-52368659D01*
X57944911Y-52372042D01*
X57946102Y-52386875D01*
X57947545Y-52406045D01*
X57949343Y-52430963D01*
X57951597Y-52463040D01*
X57954410Y-52503685D01*
X57954711Y-52507893D01*
X57956349Y-52528521D01*
X57958716Y-52556208D01*
X57961616Y-52588691D01*
X57964853Y-52623709D01*
X57965824Y-52634319D01*
X57967796Y-52656868D01*
X57969614Y-52678720D01*
X57970670Y-52691381D01*
X57972529Y-52712157D01*
X57974157Y-52728730D01*
X57975517Y-52742091D01*
X57977493Y-52762485D01*
X57979474Y-52783740D01*
X57981272Y-52802513D01*
X57983105Y-52819931D01*
X57984487Y-52831250D01*
X57985649Y-52840440D01*
X57987489Y-52857168D01*
X57989398Y-52876259D01*
X57990936Y-52891920D01*
X57993106Y-52912697D01*
X57994928Y-52928769D01*
X57996131Y-52938634D01*
X57999337Y-52965259D01*
X58001983Y-52987955D01*
X58004603Y-53011285D01*
X58005811Y-53021918D01*
X58007890Y-53039163D01*
X58009500Y-53051293D01*
X58010360Y-53057567D01*
X58012308Y-53073303D01*
X58014368Y-53091301D01*
X58015582Y-53101927D01*
X58017743Y-53119176D01*
X58019500Y-53131309D01*
X58020248Y-53136092D01*
X58022327Y-53151351D01*
X58024438Y-53168816D01*
X58025093Y-53174595D01*
X58026982Y-53190664D01*
X58028929Y-53205957D01*
X58031299Y-53223140D01*
X58034455Y-53244878D01*
X58038760Y-53273837D01*
X58040509Y-53285585D01*
X58044157Y-53310353D01*
X58047397Y-53332684D01*
X58049687Y-53348852D01*
X58052301Y-53367726D01*
X58054506Y-53383214D01*
X58056367Y-53395382D01*
X58058428Y-53407757D01*
X58061230Y-53423866D01*
X58063446Y-53436804D01*
X58066821Y-53457433D01*
X58069332Y-53473876D01*
X58070504Y-53481794D01*
X58073602Y-53501419D01*
X58076941Y-53521386D01*
X58078732Y-53531791D01*
X58081937Y-53550652D01*
X58084351Y-53565144D01*
X58086897Y-53580116D01*
X58090061Y-53597651D01*
X58092619Y-53611808D01*
X58094625Y-53623906D01*
X58096141Y-53633141D01*
X58098992Y-53648727D01*
X58103289Y-53670964D01*
X58109330Y-53701421D01*
X58111582Y-53713260D01*
X58114363Y-53728927D01*
X58116678Y-53741783D01*
X58119597Y-53756432D01*
X58119735Y-53757075D01*
X58122149Y-53768779D01*
X58125692Y-53786420D01*
X58129649Y-53806442D01*
X58130052Y-53808493D01*
X58133954Y-53828168D01*
X58137335Y-53844880D01*
X58139501Y-53855201D01*
X58141212Y-53862986D01*
X58144379Y-53877706D01*
X58145096Y-53881059D01*
X58148161Y-53895064D01*
X58151813Y-53911462D01*
X58153044Y-53916998D01*
X58156646Y-53933729D01*
X58159228Y-53946469D01*
X58160976Y-53954842D01*
X58164657Y-53971047D01*
X58169057Y-53989463D01*
X58172514Y-54003838D01*
X58176401Y-54020684D01*
X58178811Y-54031971D01*
X58180945Y-54042449D01*
X58186923Y-54068501D01*
X58195092Y-54101425D01*
X58205090Y-54139946D01*
X58216553Y-54182793D01*
X58229120Y-54228692D01*
X58242427Y-54276370D01*
X58256110Y-54324555D01*
X58269807Y-54371972D01*
X58283156Y-54417350D01*
X58295792Y-54459416D01*
X58307354Y-54496896D01*
X58317478Y-54528517D01*
X58325800Y-54553007D01*
X58331960Y-54569092D01*
X58334911Y-54576621D01*
X58340295Y-54591535D01*
X58346322Y-54609100D01*
X58351639Y-54624646D01*
X58365247Y-54662500D01*
X58381385Y-54705464D01*
X58398991Y-54750824D01*
X58417004Y-54795867D01*
X58434364Y-54837881D01*
X58450008Y-54874152D01*
X58452382Y-54879535D01*
X58457282Y-54890946D01*
X58459529Y-54896656D01*
X58459871Y-54897790D01*
X58464067Y-54908034D01*
X58471988Y-54925322D01*
X58482885Y-54948152D01*
X58496009Y-54975024D01*
X58510611Y-55004439D01*
X58525943Y-55034897D01*
X58541255Y-55064897D01*
X58555800Y-55092941D01*
X58568827Y-55117526D01*
X58579589Y-55137155D01*
X58589477Y-55154482D01*
X58606123Y-55182926D01*
X58623997Y-55212772D01*
X58642059Y-55242342D01*
X58659272Y-55269959D01*
X58674598Y-55293947D01*
X58686999Y-55312629D01*
X58695436Y-55324326D01*
X58695563Y-55324486D01*
X58700475Y-55331348D01*
X58709046Y-55343823D01*
X58719500Y-55359333D01*
X58720394Y-55360666D01*
X58730620Y-55375371D01*
X58738806Y-55386210D01*
X58743250Y-55390920D01*
X58743899Y-55391283D01*
X58747000Y-55397529D01*
X58747847Y-55400888D01*
X58753250Y-55409002D01*
X58758879Y-55415650D01*
X58767000Y-55426776D01*
X58770063Y-55431143D01*
X58778893Y-55443296D01*
X58791699Y-55460684D01*
X58807249Y-55481657D01*
X58824311Y-55504564D01*
X58841651Y-55527756D01*
X58858038Y-55549581D01*
X58872240Y-55568391D01*
X58883023Y-55582534D01*
X58889156Y-55590359D01*
X58890973Y-55592576D01*
X58899271Y-55602783D01*
X58911169Y-55617487D01*
X58924738Y-55634302D01*
X58931887Y-55643163D01*
X58959181Y-55676736D01*
X58980782Y-55702829D01*
X58997000Y-55721819D01*
X59002080Y-55727683D01*
X59013770Y-55741383D01*
X59026226Y-55756164D01*
X59033548Y-55764859D01*
X59045538Y-55778889D01*
X59054500Y-55789130D01*
X59058700Y-55793808D01*
X59069493Y-55805844D01*
X59083745Y-55821749D01*
X59099500Y-55839339D01*
X59110081Y-55851095D01*
X59160517Y-55905811D01*
X59215768Y-55963866D01*
X59273984Y-56023410D01*
X59333313Y-56082589D01*
X59391902Y-56139552D01*
X59447901Y-56192447D01*
X59499459Y-56239421D01*
X59505430Y-56244740D01*
X59521716Y-56259257D01*
X59535507Y-56271559D01*
X59544315Y-56279429D01*
X59544726Y-56279796D01*
X59554428Y-56288367D01*
X59568588Y-56300764D01*
X59584290Y-56314435D01*
X59586364Y-56316236D01*
X59600824Y-56328792D01*
X59612430Y-56338874D01*
X59618832Y-56344441D01*
X59619457Y-56344981D01*
X59626986Y-56351345D01*
X59639462Y-56361786D01*
X59654535Y-56374336D01*
X59657736Y-56376998D01*
X59671762Y-56388743D01*
X59682205Y-56397614D01*
X59687000Y-56401862D01*
X59688848Y-56403490D01*
X59697234Y-56410388D01*
X59710570Y-56421131D01*
X59727000Y-56434220D01*
X59736533Y-56441802D01*
X59751450Y-56453781D01*
X59762225Y-56462585D01*
X59767000Y-56466706D01*
X59767694Y-56467358D01*
X59774516Y-56472950D01*
X59786638Y-56482489D01*
X59802000Y-56494347D01*
X59806182Y-56497554D01*
X59821593Y-56509492D01*
X59833686Y-56519034D01*
X59840138Y-56524352D01*
X59846314Y-56529353D01*
X59856953Y-56536979D01*
X59858494Y-56538027D01*
X59870744Y-56546801D01*
X59884254Y-56556983D01*
X59885770Y-56558156D01*
X59900617Y-56569428D01*
X59914243Y-56579488D01*
X59914689Y-56579810D01*
X59925935Y-56588179D01*
X59933871Y-56594491D01*
X59938817Y-56598350D01*
X59950231Y-56606661D01*
X59964567Y-56616738D01*
X59975968Y-56624738D01*
X59986835Y-56632647D01*
X59992000Y-56636796D01*
X59994021Y-56638459D01*
X60002939Y-56644950D01*
X60017079Y-56654862D01*
X60034500Y-56666823D01*
X60044934Y-56674019D01*
X60060507Y-56685183D01*
X60071552Y-56693659D01*
X60076167Y-56698025D01*
X60076476Y-56698631D01*
X60082628Y-56702012D01*
X60085396Y-56702580D01*
X60093462Y-56707423D01*
X60094247Y-56708056D01*
X60102102Y-56713600D01*
X60116652Y-56723441D01*
X60136550Y-56736681D01*
X60160448Y-56752423D01*
X60187000Y-56769768D01*
X60194155Y-56774427D01*
X60220159Y-56791438D01*
X60243172Y-56806605D01*
X60261842Y-56819030D01*
X60274818Y-56827817D01*
X60280750Y-56832067D01*
X60284065Y-56834302D01*
X60287077Y-56833485D01*
X60287459Y-56832300D01*
X60290827Y-56834699D01*
X60292883Y-56836500D01*
X60302440Y-56843073D01*
X60318196Y-56853101D01*
X60338575Y-56865590D01*
X60362000Y-56879547D01*
X60375403Y-56887486D01*
X60397316Y-56900743D01*
X60415300Y-56911976D01*
X60427778Y-56920191D01*
X60433174Y-56924395D01*
X60434749Y-56926204D01*
X60436924Y-56925465D01*
X60437032Y-56925044D01*
X60441585Y-56925615D01*
X60450750Y-56930926D01*
X60465096Y-56940025D01*
X60480750Y-56948770D01*
X60499629Y-56958432D01*
X60515105Y-56966468D01*
X60524594Y-56971618D01*
X60529693Y-56974755D01*
X60532000Y-56976749D01*
X60533621Y-56977947D01*
X60543045Y-56983285D01*
X60559529Y-56991915D01*
X60581730Y-57003182D01*
X60608304Y-57016430D01*
X60637907Y-57031002D01*
X60669195Y-57046243D01*
X60700827Y-57061497D01*
X60731458Y-57076107D01*
X60759744Y-57089419D01*
X60784343Y-57100775D01*
X60803911Y-57109520D01*
X60812759Y-57113343D01*
X60851957Y-57129795D01*
X60893558Y-57146576D01*
X60935909Y-57163072D01*
X60977355Y-57178668D01*
X61016241Y-57192750D01*
X61050912Y-57204704D01*
X61079714Y-57213917D01*
X61100991Y-57219774D01*
X61101790Y-57219964D01*
X61111776Y-57222484D01*
X61127873Y-57226654D01*
X61147000Y-57231678D01*
X61149310Y-57232287D01*
X61169078Y-57237388D01*
X61186132Y-57241612D01*
X61197000Y-57244098D01*
X61206484Y-57246038D01*
X61221800Y-57249278D01*
X61223639Y-57249664D01*
X61237897Y-57252260D01*
X61254300Y-57254825D01*
X61257109Y-57255227D01*
X61273690Y-57257676D01*
X61287000Y-57259749D01*
X61287379Y-57259809D01*
X61298943Y-57261225D01*
X61316618Y-57262947D01*
X61336738Y-57264615D01*
X61339683Y-57264845D01*
X61357442Y-57266528D01*
X61370522Y-57268271D01*
X61376273Y-57269729D01*
X61376310Y-57269823D01*
X61376642Y-57276060D01*
X61376958Y-57291421D01*
X61377257Y-57315113D01*
X61377537Y-57346343D01*
X61377797Y-57384319D01*
X61378037Y-57428247D01*
X61378257Y-57477335D01*
X61378454Y-57530790D01*
X61378627Y-57587818D01*
X61378777Y-57647627D01*
X61378902Y-57709425D01*
X61379002Y-57772417D01*
X61379074Y-57835812D01*
X61379119Y-57898817D01*
X61379135Y-57960638D01*
X61379121Y-58020482D01*
X61379077Y-58077558D01*
X61379002Y-58131071D01*
X61378895Y-58180230D01*
X61378754Y-58224240D01*
X61378579Y-58262310D01*
X61378369Y-58293646D01*
X61378123Y-58317456D01*
X61377840Y-58332946D01*
X61377519Y-58339324D01*
X61377051Y-58341053D01*
X61375268Y-58343776D01*
X61371257Y-58345676D01*
X61363722Y-58346832D01*
X61351371Y-58347318D01*
X61332908Y-58347211D01*
X61307041Y-58346587D01*
X61272474Y-58345523D01*
X61265891Y-58345309D01*
X61234455Y-58344195D01*
X61206126Y-58343044D01*
X61182625Y-58341936D01*
X61165676Y-58340951D01*
X61157000Y-58340170D01*
X61155720Y-58339973D01*
X61143424Y-58338509D01*
X61125202Y-58336727D01*
X61104500Y-58334969D01*
X61087601Y-58333507D01*
X61048574Y-58329458D01*
X61004480Y-58324189D01*
X60958472Y-58318108D01*
X60913709Y-58311621D01*
X60873345Y-58305135D01*
X60858536Y-58302615D01*
X60842000Y-58299816D01*
X60833522Y-58298184D01*
X60816787Y-58294751D01*
X60794066Y-58289990D01*
X60767319Y-58284319D01*
X60738505Y-58278161D01*
X60709583Y-58271934D01*
X60682512Y-58266060D01*
X60659252Y-58260958D01*
X60641762Y-58257050D01*
X60632000Y-58254755D01*
X60628417Y-58253797D01*
X60616098Y-58250417D01*
X60598124Y-58245435D01*
X60577000Y-58239544D01*
X60565378Y-58236297D01*
X60543809Y-58230291D01*
X60525846Y-58225312D01*
X60514500Y-58222197D01*
X60439994Y-58200364D01*
X60348617Y-58169770D01*
X60252760Y-58133992D01*
X60154086Y-58093741D01*
X60054260Y-58049727D01*
X59954944Y-58002658D01*
X59857803Y-57953246D01*
X59764500Y-57902200D01*
X59758948Y-57899052D01*
X59740233Y-57888511D01*
X59722000Y-57878317D01*
X59708360Y-57870502D01*
X59683057Y-57855381D01*
X59652520Y-57836623D01*
X59618555Y-57815369D01*
X59582966Y-57792759D01*
X59547557Y-57769935D01*
X59514134Y-57748036D01*
X59484500Y-57728204D01*
X59479878Y-57725050D01*
X59459922Y-57711188D01*
X59435868Y-57694189D01*
X59408940Y-57674947D01*
X59380364Y-57654356D01*
X59351363Y-57633309D01*
X59323161Y-57612700D01*
X59296983Y-57593423D01*
X59274054Y-57576373D01*
X59255598Y-57562442D01*
X59242838Y-57552526D01*
X59237000Y-57547516D01*
X59236542Y-57547067D01*
X59230267Y-57541700D01*
X59218076Y-57531615D01*
X59201483Y-57518056D01*
X59182000Y-57502269D01*
X59177605Y-57498718D01*
X59158208Y-57482991D01*
X59141726Y-57469537D01*
X59129784Y-57459687D01*
X59124009Y-57454773D01*
X59123454Y-57454264D01*
X59116147Y-57447854D01*
X59103900Y-57437316D01*
X59089039Y-57424654D01*
X59071947Y-57409990D01*
X59052814Y-57393285D01*
X59037031Y-57379221D01*
X59027494Y-57370618D01*
X59011217Y-57356080D01*
X58997749Y-57344214D01*
X58997148Y-57343690D01*
X58971983Y-57321034D01*
X58941338Y-57292291D01*
X58906465Y-57258706D01*
X58868611Y-57221529D01*
X58829027Y-57182004D01*
X58788960Y-57141381D01*
X58749661Y-57100904D01*
X58712379Y-57061823D01*
X58678363Y-57025382D01*
X58669128Y-57015212D01*
X58651524Y-56995420D01*
X58630327Y-56971265D01*
X58606996Y-56944441D01*
X58582991Y-56916640D01*
X58559774Y-56889556D01*
X58538804Y-56864883D01*
X58521541Y-56844312D01*
X58509447Y-56829537D01*
X58499690Y-56817406D01*
X58491131Y-56806980D01*
X58486837Y-56802031D01*
X58486642Y-56801840D01*
X58481344Y-56795613D01*
X58471209Y-56782994D01*
X58457358Y-56765427D01*
X58440909Y-56744357D01*
X58422983Y-56721228D01*
X58404699Y-56697483D01*
X58387177Y-56674567D01*
X58371535Y-56653924D01*
X58358895Y-56636999D01*
X58352510Y-56628329D01*
X58312118Y-56572593D01*
X58271793Y-56515528D01*
X58233639Y-56460146D01*
X58199761Y-56409454D01*
X58196329Y-56404219D01*
X58180807Y-56380561D01*
X58166284Y-56358445D01*
X58154253Y-56340145D01*
X58146209Y-56327937D01*
X58140967Y-56319869D01*
X58134519Y-56309422D01*
X58132000Y-56304536D01*
X58131968Y-56304378D01*
X58128883Y-56298829D01*
X58121761Y-56287465D01*
X58112000Y-56272524D01*
X58110849Y-56270788D01*
X58101309Y-56256134D01*
X58094561Y-56245308D01*
X58092000Y-56240544D01*
X58091869Y-56240160D01*
X58088410Y-56233701D01*
X58080961Y-56220685D01*
X58070469Y-56202751D01*
X58057883Y-56181539D01*
X58044074Y-56158152D01*
X58028186Y-56130732D01*
X58013557Y-56105002D01*
X58002154Y-56084390D01*
X57999618Y-56079699D01*
X57987308Y-56057005D01*
X57975126Y-56034654D01*
X57965379Y-56016877D01*
X57964745Y-56015726D01*
X57935712Y-55961137D01*
X57904541Y-55899239D01*
X57872206Y-55832175D01*
X57839684Y-55762085D01*
X57807950Y-55691109D01*
X57777979Y-55621388D01*
X57750747Y-55555063D01*
X57727229Y-55494274D01*
X57723190Y-55483444D01*
X57713985Y-55458901D01*
X57706034Y-55437889D01*
X57700077Y-55422359D01*
X57696854Y-55414258D01*
X57696796Y-55414124D01*
X57692811Y-55403549D01*
X57686486Y-55385308D01*
X57678371Y-55361116D01*
X57669018Y-55332688D01*
X57658975Y-55301741D01*
X57648793Y-55269989D01*
X57639022Y-55239149D01*
X57630213Y-55210935D01*
X57622916Y-55187063D01*
X57617680Y-55169249D01*
X57615057Y-55159208D01*
X57612940Y-55150188D01*
X57609091Y-55134982D01*
X57604369Y-55116881D01*
X57599605Y-55099034D01*
X57595630Y-55084588D01*
X57593275Y-55076692D01*
X57592207Y-55073461D01*
X57589103Y-55061689D01*
X57588239Y-55057754D01*
X57585328Y-55045243D01*
X57581261Y-55028153D01*
X57576814Y-55009712D01*
X57572761Y-54993143D01*
X57569879Y-54981673D01*
X57568144Y-54974729D01*
X57564465Y-54959544D01*
X57559922Y-54940539D01*
X57555313Y-54921069D01*
X57551435Y-54904490D01*
X57549085Y-54894156D01*
X57547756Y-54888062D01*
X57544686Y-54874152D01*
X57544652Y-54874001D01*
X57543472Y-54868663D01*
X57542141Y-54862476D01*
X57540348Y-54853949D01*
X57537785Y-54841590D01*
X57534142Y-54823907D01*
X57529110Y-54799410D01*
X57522379Y-54766606D01*
X57520332Y-54756609D01*
X57514971Y-54730269D01*
X57510301Y-54707101D01*
X57506765Y-54689313D01*
X57504807Y-54679114D01*
X57502474Y-54666484D01*
X57500031Y-54653856D01*
X57499147Y-54649062D01*
X57496734Y-54635386D01*
X57493203Y-54615098D01*
X57488874Y-54590056D01*
X57484067Y-54562120D01*
X57479099Y-54533147D01*
X57474291Y-54504997D01*
X57469961Y-54479527D01*
X57466428Y-54458598D01*
X57464013Y-54444067D01*
X57461882Y-54431169D01*
X57459358Y-54416157D01*
X57457168Y-54402285D01*
X57454859Y-54386151D01*
X57452561Y-54369570D01*
X57449954Y-54351549D01*
X57443686Y-54308866D01*
X57437454Y-54265242D01*
X57431643Y-54223424D01*
X57426528Y-54185432D01*
X57422386Y-54153286D01*
X57419493Y-54129005D01*
X57416586Y-54103730D01*
X57413301Y-54077631D01*
X57409099Y-54046489D01*
X57407844Y-54037198D01*
X57406159Y-54023695D01*
X57404457Y-54008385D01*
X57402444Y-53988550D01*
X57399821Y-53961472D01*
X57396577Y-53929356D01*
X57392788Y-53895243D01*
X57389226Y-53866454D01*
X57388332Y-53859168D01*
X57386379Y-53840825D01*
X57384593Y-53821445D01*
X57383875Y-53813003D01*
X57381746Y-53788874D01*
X57379680Y-53766434D01*
X57377044Y-53738623D01*
X57374020Y-53706450D01*
X57371639Y-53680636D01*
X57369715Y-53659079D01*
X57368060Y-53639673D01*
X57366487Y-53620315D01*
X57364811Y-53598901D01*
X57364327Y-53592645D01*
X57361288Y-53553459D01*
X57358885Y-53522644D01*
X57357006Y-53498795D01*
X57355541Y-53480507D01*
X57354380Y-53466375D01*
X57353978Y-53461371D01*
X57352628Y-53443181D01*
X57351027Y-53420254D01*
X57349442Y-53396361D01*
X57348902Y-53388011D01*
X57347241Y-53362838D01*
X57345646Y-53339262D01*
X57344400Y-53321474D01*
X57343628Y-53310143D01*
X57342266Y-53288478D01*
X57340736Y-53262773D01*
X57339246Y-53236458D01*
X57338177Y-53217260D01*
X57336680Y-53191022D01*
X57335322Y-53167893D01*
X57334303Y-53151313D01*
X57334128Y-53148515D01*
X57333164Y-53131312D01*
X57331942Y-53107531D01*
X57330600Y-53079937D01*
X57329277Y-53051293D01*
X57329018Y-53045541D01*
X57327690Y-53016153D01*
X57326399Y-52987827D01*
X57325279Y-52963542D01*
X57324468Y-52946272D01*
X57324124Y-52938656D01*
X57323246Y-52917268D01*
X57322115Y-52887926D01*
X57320780Y-52851967D01*
X57319288Y-52810729D01*
X57317689Y-52765550D01*
X57316032Y-52717767D01*
X57314364Y-52668718D01*
X57314336Y-52667870D01*
X57311616Y-52574048D01*
X57309426Y-52471391D01*
X57307764Y-52361043D01*
X57306625Y-52244146D01*
X57306005Y-52121843D01*
X57305901Y-51995276D01*
X57306310Y-51865588D01*
X57307228Y-51733922D01*
X57308652Y-51601420D01*
X57310577Y-51469224D01*
X57313000Y-51338479D01*
X57315918Y-51210325D01*
X57319327Y-51085906D01*
X57320119Y-51057134D01*
X57320839Y-51026557D01*
X57321383Y-50998673D01*
X57321673Y-50977135D01*
X57322000Y-50935877D01*
X57902000Y-50935877D01*
X57902310Y-51104660D01*
G37*
G36*
X54091544Y-59170040D02*
G01*
X54149449Y-59170165D01*
X54203895Y-59170366D01*
X54254065Y-59170636D01*
X54299142Y-59170968D01*
X54338307Y-59171355D01*
X54370743Y-59171790D01*
X54395633Y-59172266D01*
X54412158Y-59172776D01*
X54419500Y-59173312D01*
X54436034Y-59177748D01*
X54465465Y-59188539D01*
X54494918Y-59202308D01*
X54521108Y-59217456D01*
X54540750Y-59232382D01*
X54541300Y-59232893D01*
X54548876Y-59239299D01*
X54552000Y-59240706D01*
X54552424Y-59240462D01*
X54557397Y-59244249D01*
X54566615Y-59253176D01*
X54578377Y-59265485D01*
X54590984Y-59279415D01*
X54602733Y-59293205D01*
X54608441Y-59300577D01*
X54619023Y-59315388D01*
X54630794Y-59332787D01*
X54642365Y-59350620D01*
X54652348Y-59366733D01*
X54659356Y-59378972D01*
X54662000Y-59385183D01*
X54662466Y-59386958D01*
X54665927Y-59395784D01*
X54671657Y-59408849D01*
X54678994Y-59426204D01*
X54691658Y-59462045D01*
X54702145Y-59499138D01*
X54708972Y-59532569D01*
X54709190Y-59534011D01*
X54711987Y-59551792D01*
X54715000Y-59570076D01*
X54715122Y-59571673D01*
X54715408Y-59582395D01*
X54715692Y-59602540D01*
X54715972Y-59631700D01*
X54716246Y-59669467D01*
X54716513Y-59715435D01*
X54716773Y-59769195D01*
X54717025Y-59830340D01*
X54717266Y-59898463D01*
X54717497Y-59973155D01*
X54717715Y-60054010D01*
X54717920Y-60140619D01*
X54718111Y-60232575D01*
X54718287Y-60329471D01*
X54718445Y-60430899D01*
X54718586Y-60536451D01*
X54718708Y-60645720D01*
X54718810Y-60758298D01*
X54718890Y-60873778D01*
X54718949Y-60991752D01*
X54719500Y-62393424D01*
X54475737Y-62392952D01*
X54231973Y-62392481D01*
X54231884Y-61103803D01*
X54231873Y-61033069D01*
X54231830Y-60921530D01*
X54231758Y-60812773D01*
X54231657Y-60707224D01*
X54231529Y-60605306D01*
X54231376Y-60507445D01*
X54231198Y-60414065D01*
X54230998Y-60325591D01*
X54230776Y-60242448D01*
X54230534Y-60165060D01*
X54230273Y-60093851D01*
X54229995Y-60029248D01*
X54229700Y-59971673D01*
X54229391Y-59921552D01*
X54229069Y-59879310D01*
X54228735Y-59845371D01*
X54228390Y-59820160D01*
X54228037Y-59804102D01*
X54227675Y-59797621D01*
X54220244Y-59774927D01*
X54205170Y-59747439D01*
X54185628Y-59724570D01*
X54163233Y-59708111D01*
X54139598Y-59699855D01*
X54132516Y-59699345D01*
X54115760Y-59698856D01*
X54091033Y-59698505D01*
X54059439Y-59698294D01*
X54022084Y-59698230D01*
X53980074Y-59698314D01*
X53934512Y-59698551D01*
X53886506Y-59698946D01*
X53885157Y-59698959D01*
X53828610Y-59699534D01*
X53781028Y-59700128D01*
X53741396Y-59700835D01*
X53708703Y-59701748D01*
X53681936Y-59702961D01*
X53660080Y-59704569D01*
X53642124Y-59706664D01*
X53627054Y-59709340D01*
X53613857Y-59712692D01*
X53601520Y-59716813D01*
X53589030Y-59721796D01*
X53575373Y-59727736D01*
X53552329Y-59739543D01*
X53512484Y-59767888D01*
X53475365Y-59804461D01*
X53441742Y-59848197D01*
X53412387Y-59898030D01*
X53388073Y-59952896D01*
X53369572Y-60011730D01*
X53362487Y-60045479D01*
X53355763Y-60105530D01*
X53355156Y-60168508D01*
X53360639Y-60231334D01*
X53372182Y-60290930D01*
X53392368Y-60354637D01*
X53419479Y-60412720D01*
X53453574Y-60464254D01*
X53495131Y-60509956D01*
X53544628Y-60550546D01*
X53551779Y-60555353D01*
X53568592Y-60565616D01*
X53589628Y-60577643D01*
X53613047Y-60590469D01*
X53637006Y-60603128D01*
X53659665Y-60614655D01*
X53679183Y-60624084D01*
X53693719Y-60630449D01*
X53701432Y-60632786D01*
X53702117Y-60632823D01*
X53707834Y-60636536D01*
X53710589Y-60639092D01*
X53720283Y-60645235D01*
X53734214Y-60652745D01*
X53741951Y-60656787D01*
X53765978Y-60670517D01*
X53790739Y-60685992D01*
X53811345Y-60700205D01*
X53814599Y-60702851D01*
X53824795Y-60712176D01*
X53838149Y-60725166D01*
X53852940Y-60740049D01*
X53867444Y-60755054D01*
X53879938Y-60768411D01*
X53888698Y-60778349D01*
X53892000Y-60783096D01*
X53892884Y-60786076D01*
X53898250Y-60793710D01*
X53901536Y-60797584D01*
X53912590Y-60814820D01*
X53924916Y-60838988D01*
X53937687Y-60868004D01*
X53950073Y-60899787D01*
X53961248Y-60932254D01*
X53970383Y-60963322D01*
X53976650Y-60990907D01*
X53980746Y-61017216D01*
X53985128Y-61059441D01*
X53987324Y-61102262D01*
X53987189Y-61142265D01*
X53984575Y-61176033D01*
X53983714Y-61182538D01*
X53981160Y-61201781D01*
X53979030Y-61217745D01*
X53977775Y-61225909D01*
X53970994Y-61257045D01*
X53961005Y-61292252D01*
X53948958Y-61328036D01*
X53936000Y-61360904D01*
X53923280Y-61387361D01*
X53922520Y-61388726D01*
X53913023Y-61405020D01*
X53898840Y-61428465D01*
X53880658Y-61457955D01*
X53859162Y-61492382D01*
X53835040Y-61530641D01*
X53808978Y-61571625D01*
X53797670Y-61589362D01*
X53781721Y-61614429D01*
X53763269Y-61643463D01*
X53743790Y-61674144D01*
X53724758Y-61704151D01*
X53724243Y-61704965D01*
X53706018Y-61733697D01*
X53688152Y-61761832D01*
X53671894Y-61787406D01*
X53658490Y-61808456D01*
X53649188Y-61823020D01*
X53638605Y-61839542D01*
X53618097Y-61871590D01*
X53598280Y-61902608D01*
X53577946Y-61934493D01*
X53555887Y-61969142D01*
X53530893Y-62008448D01*
X53501757Y-62054309D01*
X53485195Y-62080392D01*
X53464685Y-62112711D01*
X53445375Y-62143157D01*
X53428306Y-62170088D01*
X53414519Y-62191863D01*
X53405056Y-62206839D01*
X53399163Y-62216160D01*
X53385522Y-62237655D01*
X53368960Y-62263681D01*
X53351049Y-62291764D01*
X53333365Y-62319433D01*
X53286118Y-62393263D01*
X52999059Y-62393050D01*
X52956611Y-62392977D01*
X52906495Y-62392779D01*
X52860196Y-62392472D01*
X52818595Y-62392070D01*
X52782577Y-62391585D01*
X52753025Y-62391029D01*
X52730823Y-62390414D01*
X52716853Y-62389753D01*
X52712000Y-62389058D01*
X52714225Y-62384340D01*
X52720973Y-62372418D01*
X52731414Y-62354767D01*
X52744713Y-62332803D01*
X52760032Y-62307939D01*
X52760787Y-62306722D01*
X52773478Y-62286275D01*
X52790639Y-62258612D01*
X52811528Y-62224928D01*
X52835403Y-62186420D01*
X52861524Y-62144282D01*
X52889149Y-62099712D01*
X52917536Y-62053905D01*
X52945945Y-62008056D01*
X52946514Y-62007137D01*
X52975291Y-61960692D01*
X53004319Y-61913842D01*
X53032810Y-61867859D01*
X53059976Y-61824017D01*
X53085028Y-61783587D01*
X53107178Y-61747842D01*
X53125637Y-61718053D01*
X53139617Y-61695495D01*
X53149018Y-61680325D01*
X53168050Y-61649606D01*
X53190552Y-61613281D01*
X53215409Y-61573151D01*
X53241503Y-61531017D01*
X53267720Y-61488682D01*
X53292943Y-61447946D01*
X53314652Y-61412901D01*
X53336549Y-61377587D01*
X53356727Y-61345082D01*
X53374478Y-61316524D01*
X53389092Y-61293054D01*
X53399861Y-61275812D01*
X53406078Y-61265935D01*
X53425213Y-61228266D01*
X53436044Y-61188163D01*
X53437700Y-61148054D01*
X53429967Y-61109337D01*
X53423529Y-61093350D01*
X53413230Y-61076729D01*
X53398505Y-61060951D01*
X53377785Y-61044378D01*
X53349500Y-61025373D01*
X53312880Y-61000861D01*
X53239700Y-60943691D01*
X53173668Y-60879983D01*
X53114401Y-60809302D01*
X53061517Y-60731215D01*
X53014632Y-60645288D01*
X52984817Y-60578590D01*
X52956811Y-60502661D01*
X52934520Y-60426505D01*
X52919001Y-60353347D01*
X52916411Y-60338352D01*
X52914112Y-60325842D01*
X52914065Y-60325601D01*
X52911792Y-60311195D01*
X52909101Y-60290308D01*
X52906404Y-60266345D01*
X52904109Y-60242709D01*
X52903753Y-60237734D01*
X52903012Y-60219364D01*
X52902509Y-60194715D01*
X52902241Y-60166111D01*
X52902205Y-60135878D01*
X52902400Y-60106341D01*
X52902821Y-60079827D01*
X52903468Y-60058662D01*
X52904336Y-60045170D01*
X52905187Y-60037424D01*
X52907343Y-60017731D01*
X52909530Y-59997661D01*
X52910846Y-59987288D01*
X52914854Y-59962108D01*
X52920349Y-59932099D01*
X52926730Y-59900202D01*
X52933399Y-59869362D01*
X52939755Y-59842522D01*
X52945198Y-59822626D01*
X52948831Y-59810786D01*
X52952844Y-59797354D01*
X52954861Y-59790120D01*
X52956260Y-59784781D01*
X52962093Y-59766844D01*
X52970815Y-59743119D01*
X52981551Y-59715930D01*
X52993427Y-59687600D01*
X53010718Y-59649662D01*
X53054363Y-59568167D01*
X53104145Y-59492436D01*
X53159360Y-59423385D01*
X53219307Y-59361932D01*
X53283283Y-59308993D01*
X53290467Y-59303699D01*
X53306561Y-59291762D01*
X53319069Y-59282383D01*
X53325750Y-59277237D01*
X53329010Y-59275158D01*
X53332077Y-59276071D01*
X53332474Y-59277255D01*
X53335827Y-59274724D01*
X53342278Y-59269172D01*
X53356185Y-59260399D01*
X53375266Y-59249815D01*
X53397434Y-59238523D01*
X53420605Y-59227626D01*
X53442692Y-59218225D01*
X53465784Y-59209640D01*
X53498536Y-59198987D01*
X53530286Y-59190157D01*
X53557000Y-59184346D01*
X53566132Y-59182537D01*
X53575828Y-59179982D01*
X53580312Y-59178736D01*
X53590517Y-59177020D01*
X53605254Y-59175524D01*
X53625068Y-59174236D01*
X53650506Y-59173145D01*
X53682116Y-59172238D01*
X53720444Y-59171504D01*
X53766038Y-59170930D01*
X53819443Y-59170504D01*
X53881208Y-59170215D01*
X53951878Y-59170050D01*
X54032000Y-59169998D01*
X54091544Y-59170040D01*
G37*
G36*
X55962445Y-50979635D02*
G01*
X55962669Y-50997365D01*
X55963117Y-51023005D01*
X55963775Y-51053622D01*
X55964669Y-51090220D01*
X55965822Y-51133803D01*
X55967260Y-51185374D01*
X55969008Y-51245938D01*
X55970025Y-51282278D01*
X55972453Y-51383984D01*
X55974473Y-51491736D01*
X55976083Y-51604195D01*
X55977284Y-51720027D01*
X55978074Y-51837894D01*
X55978454Y-51956460D01*
X55978422Y-52074389D01*
X55977978Y-52190343D01*
X55977121Y-52302986D01*
X55975852Y-52410983D01*
X55974169Y-52512995D01*
X55972073Y-52607687D01*
X55969562Y-52693723D01*
X55968941Y-52712121D01*
X55964564Y-52833675D01*
X55959922Y-52949085D01*
X55955051Y-53057578D01*
X55949987Y-53158384D01*
X55944767Y-53250732D01*
X55939426Y-53333849D01*
X55938062Y-53353715D01*
X55936182Y-53381178D01*
X55934465Y-53406363D01*
X55931696Y-53446491D01*
X55928851Y-53486240D01*
X55926435Y-53518246D01*
X55924531Y-53541390D01*
X55923146Y-53557427D01*
X55921313Y-53579175D01*
X55919475Y-53601401D01*
X55918128Y-53617771D01*
X55913185Y-53676084D01*
X55908558Y-53727884D01*
X55904401Y-53771435D01*
X55904081Y-53774638D01*
X55901957Y-53795950D01*
X55899913Y-53816444D01*
X55898699Y-53828679D01*
X55896596Y-53849997D01*
X55894492Y-53871455D01*
X55892857Y-53887521D01*
X55890943Y-53904906D01*
X55889500Y-53916463D01*
X55888345Y-53925654D01*
X55886510Y-53942381D01*
X55884603Y-53961472D01*
X55883186Y-53976149D01*
X55880879Y-53998472D01*
X55878285Y-54021161D01*
X55874873Y-54048990D01*
X55874756Y-54049926D01*
X55872298Y-54069600D01*
X55869873Y-54088997D01*
X55869444Y-54092437D01*
X55867008Y-54111995D01*
X55864586Y-54131506D01*
X55864048Y-54135818D01*
X55861599Y-54154942D01*
X55859395Y-54171514D01*
X55859008Y-54174367D01*
X55856713Y-54192239D01*
X55854478Y-54210774D01*
X55853975Y-54215036D01*
X55851766Y-54232197D01*
X55849772Y-54245781D01*
X55849232Y-54249138D01*
X55846934Y-54264373D01*
X55844500Y-54281535D01*
X55843368Y-54289787D01*
X55841912Y-54300221D01*
X55840360Y-54310972D01*
X55838361Y-54324432D01*
X55835561Y-54342995D01*
X55831610Y-54369053D01*
X55830884Y-54373847D01*
X55828002Y-54393064D01*
X55825765Y-54408284D01*
X55824606Y-54416562D01*
X55824390Y-54418178D01*
X55822657Y-54429382D01*
X55820184Y-54444067D01*
X55819804Y-54446264D01*
X55816922Y-54463832D01*
X55814641Y-54479074D01*
X55813599Y-54486088D01*
X55810815Y-54503035D01*
X55807538Y-54521583D01*
X55805679Y-54531884D01*
X55802318Y-54551292D01*
X55799835Y-54566591D01*
X55799765Y-54567051D01*
X55797279Y-54582314D01*
X55795000Y-54594713D01*
X55794876Y-54595325D01*
X55792525Y-54608038D01*
X55789952Y-54623376D01*
X55789498Y-54626153D01*
X55786198Y-54644270D01*
X55782427Y-54662768D01*
X55781827Y-54665566D01*
X55777927Y-54685432D01*
X55774727Y-54704119D01*
X55774492Y-54705634D01*
X55771066Y-54724302D01*
X55767167Y-54741626D01*
X55763297Y-54758337D01*
X55760294Y-54774132D01*
X55759671Y-54777862D01*
X55756554Y-54794082D01*
X55752762Y-54811640D01*
X55751498Y-54817200D01*
X55747849Y-54833918D01*
X55745272Y-54846647D01*
X55743231Y-54856610D01*
X55739539Y-54873365D01*
X55735170Y-54892395D01*
X55731190Y-54909715D01*
X55727455Y-54926643D01*
X55725196Y-54937694D01*
X55723189Y-54947765D01*
X55717664Y-54972010D01*
X55709970Y-55003219D01*
X55700559Y-55039724D01*
X55689882Y-55079862D01*
X55678391Y-55121966D01*
X55666537Y-55164371D01*
X55654771Y-55205410D01*
X55643545Y-55243419D01*
X55633310Y-55276731D01*
X55626192Y-55299398D01*
X55620159Y-55318787D01*
X55615874Y-55332754D01*
X55613974Y-55339244D01*
X55612386Y-55344267D01*
X55607717Y-55357691D01*
X55600635Y-55377476D01*
X55591749Y-55401950D01*
X55581667Y-55429440D01*
X55570997Y-55458272D01*
X55560347Y-55486773D01*
X55559718Y-55488444D01*
X55550531Y-55512271D01*
X55538987Y-55541467D01*
X55526499Y-55572489D01*
X55514477Y-55601795D01*
X55510271Y-55611948D01*
X55500706Y-55635158D01*
X55492818Y-55654474D01*
X55487333Y-55668118D01*
X55484972Y-55674309D01*
X55482550Y-55680472D01*
X55477067Y-55693172D01*
X55469836Y-55709316D01*
X55401753Y-55853675D01*
X55311981Y-56028939D01*
X55217360Y-56197368D01*
X55117075Y-56360401D01*
X55010308Y-56519476D01*
X55000872Y-56532947D01*
X54986051Y-56554050D01*
X54973733Y-56571524D01*
X54964992Y-56583845D01*
X54960903Y-56589490D01*
X54960784Y-56589643D01*
X54956245Y-56595621D01*
X54946775Y-56608169D01*
X54933370Y-56625964D01*
X54917027Y-56647684D01*
X54898741Y-56672006D01*
X54889475Y-56684244D01*
X54867654Y-56712575D01*
X54842763Y-56744388D01*
X54816110Y-56778053D01*
X54789004Y-56811937D01*
X54762752Y-56844411D01*
X54738663Y-56873842D01*
X54718045Y-56898600D01*
X54702206Y-56917054D01*
X54701547Y-56917803D01*
X54692305Y-56928361D01*
X54679375Y-56943203D01*
X54665341Y-56959363D01*
X54663625Y-56961340D01*
X54644798Y-56982730D01*
X54623974Y-57005810D01*
X54599902Y-57031940D01*
X54571329Y-57062483D01*
X54537000Y-57098800D01*
X54508851Y-57128224D01*
X54363218Y-57272847D01*
X54213314Y-57409307D01*
X54059438Y-57537397D01*
X53901889Y-57656909D01*
X53740965Y-57767636D01*
X53576966Y-57869369D01*
X53410189Y-57961902D01*
X53240935Y-58045026D01*
X53069500Y-58118535D01*
X53038389Y-58130622D01*
X52999505Y-58145138D01*
X52957681Y-58160255D01*
X52914669Y-58175373D01*
X52872224Y-58189895D01*
X52832099Y-58203220D01*
X52796047Y-58214749D01*
X52765820Y-58223884D01*
X52743173Y-58230026D01*
X52741875Y-58230349D01*
X52731706Y-58232955D01*
X52714476Y-58237420D01*
X52692226Y-58243214D01*
X52667000Y-58249807D01*
X52660776Y-58251431D01*
X52635247Y-58257994D01*
X52612584Y-58263670D01*
X52595053Y-58267898D01*
X52584921Y-58270117D01*
X52573983Y-58272467D01*
X52567316Y-58274627D01*
X52565583Y-58275281D01*
X52556094Y-58277429D01*
X52542000Y-58279822D01*
X52535613Y-58280825D01*
X52523221Y-58283109D01*
X52517104Y-58284760D01*
X52516557Y-58284962D01*
X52508859Y-58286716D01*
X52493883Y-58289696D01*
X52473692Y-58293522D01*
X52450347Y-58297813D01*
X52425909Y-58302190D01*
X52402440Y-58306271D01*
X52382000Y-58309678D01*
X52381913Y-58309692D01*
X52365920Y-58312333D01*
X52352000Y-58314724D01*
X52346015Y-58315685D01*
X52330377Y-58317860D01*
X52312491Y-58320072D01*
X52302061Y-58321327D01*
X52286452Y-58323382D01*
X52276520Y-58324924D01*
X52267802Y-58326179D01*
X52252212Y-58327985D01*
X52233529Y-58329884D01*
X52215807Y-58331640D01*
X52198405Y-58333507D01*
X52187000Y-58334896D01*
X52180166Y-58335636D01*
X52164342Y-58336962D01*
X52143230Y-58338499D01*
X52119500Y-58340043D01*
X52100426Y-58341259D01*
X52081588Y-58342572D01*
X52068615Y-58343612D01*
X52063566Y-58344225D01*
X52061758Y-58344421D01*
X52051717Y-58344864D01*
X52034397Y-58345398D01*
X52011522Y-58345970D01*
X51984816Y-58346531D01*
X51973991Y-58346733D01*
X51947475Y-58347096D01*
X51929014Y-58346982D01*
X51917151Y-58346251D01*
X51910427Y-58344759D01*
X51907385Y-58342365D01*
X51906568Y-58338929D01*
X51906409Y-58331630D01*
X51906252Y-58314960D01*
X51906118Y-58290090D01*
X51906005Y-58257811D01*
X51905914Y-58218914D01*
X51905844Y-58174192D01*
X51905793Y-58124434D01*
X51905762Y-58070433D01*
X51905749Y-58012981D01*
X51905754Y-57952867D01*
X51905776Y-57890885D01*
X51905814Y-57827825D01*
X51905869Y-57764478D01*
X51905938Y-57701637D01*
X51906022Y-57640092D01*
X51906119Y-57580635D01*
X51906229Y-57524058D01*
X51906352Y-57471151D01*
X51906486Y-57422706D01*
X51906632Y-57379515D01*
X51906787Y-57342368D01*
X51906952Y-57312058D01*
X51907126Y-57289376D01*
X51907308Y-57275113D01*
X51907498Y-57270060D01*
X51908145Y-57269772D01*
X51916029Y-57268397D01*
X51930683Y-57266732D01*
X51949590Y-57265076D01*
X51953771Y-57264749D01*
X51973691Y-57263046D01*
X51990029Y-57261426D01*
X51999590Y-57260200D01*
X52003929Y-57259465D01*
X52017794Y-57257318D01*
X52034500Y-57254892D01*
X52047524Y-57252627D01*
X52068563Y-57248301D01*
X52093560Y-57242706D01*
X52119500Y-57236495D01*
X52120197Y-57236322D01*
X52143867Y-57230454D01*
X52164336Y-57225384D01*
X52179437Y-57221649D01*
X52187000Y-57219785D01*
X52188707Y-57219308D01*
X52199008Y-57216083D01*
X52216151Y-57210515D01*
X52238222Y-57203229D01*
X52263306Y-57194851D01*
X52342441Y-57166660D01*
X52461132Y-57118770D01*
X52584161Y-57062772D01*
X52711020Y-56998924D01*
X52841201Y-56927485D01*
X52974197Y-56848716D01*
X53109500Y-56762873D01*
X53109835Y-56762654D01*
X53128658Y-56750132D01*
X53152073Y-56734273D01*
X53178912Y-56715894D01*
X53208010Y-56695813D01*
X53238198Y-56674848D01*
X53268309Y-56653816D01*
X53297177Y-56633534D01*
X53323633Y-56614821D01*
X53346511Y-56598494D01*
X53364643Y-56585370D01*
X53376862Y-56576267D01*
X53382000Y-56572003D01*
X53384258Y-56569944D01*
X53393264Y-56562756D01*
X53407298Y-56552008D01*
X53424500Y-56539140D01*
X53435709Y-56530813D01*
X53451100Y-56519274D01*
X53462149Y-56510854D01*
X53467000Y-56506957D01*
X53469005Y-56505239D01*
X53477748Y-56498107D01*
X53492084Y-56486563D01*
X53510630Y-56471723D01*
X53532000Y-56454697D01*
X53548730Y-56441378D01*
X53566789Y-56426918D01*
X53583019Y-56413763D01*
X53598762Y-56400791D01*
X53615354Y-56386875D01*
X53634136Y-56370893D01*
X53656445Y-56351718D01*
X53683620Y-56328226D01*
X53717000Y-56299294D01*
X53779220Y-56244359D01*
X53874539Y-56156602D01*
X53968977Y-56065480D01*
X54060533Y-55972984D01*
X54147208Y-55881104D01*
X54227000Y-55791830D01*
X54235678Y-55781840D01*
X54249242Y-55766303D01*
X54259773Y-55754344D01*
X54265517Y-55747957D01*
X54269914Y-55742957D01*
X54279294Y-55731741D01*
X54290517Y-55717951D01*
X54299189Y-55707276D01*
X54309421Y-55694984D01*
X54315979Y-55687483D01*
X54320982Y-55682019D01*
X54336562Y-55663787D01*
X54356591Y-55639148D01*
X54380131Y-55609332D01*
X54406241Y-55575571D01*
X54433981Y-55539096D01*
X54462413Y-55501140D01*
X54490595Y-55462933D01*
X54517589Y-55425708D01*
X54542454Y-55390695D01*
X54563123Y-55360948D01*
X54622326Y-55272102D01*
X54675789Y-55185626D01*
X54724866Y-55099055D01*
X54770912Y-55009926D01*
X54815279Y-54915776D01*
X54859322Y-54814140D01*
X54864815Y-54800829D01*
X54877821Y-54768388D01*
X54892044Y-54731876D01*
X54906941Y-54692780D01*
X54921969Y-54652586D01*
X54936585Y-54612779D01*
X54950246Y-54574846D01*
X54962409Y-54540272D01*
X54972531Y-54510545D01*
X54980069Y-54487150D01*
X54984480Y-54471573D01*
X54986561Y-54464225D01*
X54990926Y-54450036D01*
X54996468Y-54432689D01*
X54997500Y-54429463D01*
X55002380Y-54413602D01*
X55008955Y-54391644D01*
X55016657Y-54365549D01*
X55024917Y-54337278D01*
X55033166Y-54308790D01*
X55040837Y-54282047D01*
X55047360Y-54259008D01*
X55052168Y-54241636D01*
X55054692Y-54231888D01*
X55055100Y-54230178D01*
X55057750Y-54219657D01*
X55062241Y-54202144D01*
X55068067Y-54179606D01*
X55074722Y-54154010D01*
X55077175Y-54144594D01*
X55083626Y-54119736D01*
X55089088Y-54098560D01*
X55093047Y-54083063D01*
X55094988Y-54075245D01*
X55096037Y-54070738D01*
X55099139Y-54057741D01*
X55099335Y-54056931D01*
X55101729Y-54046629D01*
X55105738Y-54029063D01*
X55110938Y-54006125D01*
X55116901Y-53979704D01*
X55123205Y-53951692D01*
X55129423Y-53923981D01*
X55135131Y-53898460D01*
X55139904Y-53877020D01*
X55143317Y-53861554D01*
X55144944Y-53853951D01*
X55147174Y-53842696D01*
X55150834Y-53824460D01*
X55155271Y-53802489D01*
X55159935Y-53779493D01*
X55164276Y-53758179D01*
X55167746Y-53741254D01*
X55169795Y-53731427D01*
X55171706Y-53721881D01*
X55174410Y-53706422D01*
X55175766Y-53698275D01*
X55178612Y-53681913D01*
X55182417Y-53660449D01*
X55186736Y-53636408D01*
X55190530Y-53615382D01*
X55194532Y-53593111D01*
X55197680Y-53575498D01*
X55199508Y-53565134D01*
X55200797Y-53557668D01*
X55203655Y-53541123D01*
X55206852Y-53522625D01*
X55208815Y-53511140D01*
X55212202Y-53490806D01*
X55214820Y-53474493D01*
X55215193Y-53472101D01*
X55217726Y-53456559D01*
X55219825Y-53444687D01*
X55220348Y-53441907D01*
X55223972Y-53420277D01*
X55228637Y-53389136D01*
X55234289Y-53348852D01*
X55235406Y-53340896D01*
X55237965Y-53323807D01*
X55240039Y-53311344D01*
X55240338Y-53309676D01*
X55242523Y-53295308D01*
X55244598Y-53278838D01*
X55244887Y-53276315D01*
X55247078Y-53259726D01*
X55249260Y-53246332D01*
X55249385Y-53245681D01*
X55251132Y-53235463D01*
X55253232Y-53220908D01*
X55255939Y-53200149D01*
X55259509Y-53171317D01*
X55259683Y-53169898D01*
X55261523Y-53155299D01*
X55264100Y-53135244D01*
X55266914Y-53113632D01*
X55267254Y-53111037D01*
X55270119Y-53088891D01*
X55272722Y-53068371D01*
X55274536Y-53053620D01*
X55276109Y-53040377D01*
X55279942Y-53008187D01*
X55284347Y-52971277D01*
X55291328Y-52909969D01*
X55299218Y-52831250D01*
X55299346Y-52829877D01*
X55301312Y-52809764D01*
X55303158Y-52792339D01*
X55304500Y-52781240D01*
X55304567Y-52780766D01*
X55305928Y-52769124D01*
X55307727Y-52751399D01*
X55309593Y-52731230D01*
X55311530Y-52709699D01*
X55313460Y-52688979D01*
X55314953Y-52673719D01*
X55316546Y-52657706D01*
X55318483Y-52636838D01*
X55320645Y-52612003D01*
X55323159Y-52581701D01*
X55326151Y-52544429D01*
X55329748Y-52498684D01*
X55331208Y-52480219D01*
X55332979Y-52458318D01*
X55334406Y-52441173D01*
X55335209Y-52431306D01*
X55336836Y-52409467D01*
X55338917Y-52379700D01*
X55341497Y-52341321D01*
X55344625Y-52293644D01*
X55345919Y-52273781D01*
X55347714Y-52246317D01*
X55349365Y-52221130D01*
X55350060Y-52210119D01*
X55351552Y-52184766D01*
X55353135Y-52156152D01*
X55354563Y-52128612D01*
X55355310Y-52113810D01*
X55356807Y-52085142D01*
X55358288Y-52057790D01*
X55359522Y-52036093D01*
X55359816Y-52031024D01*
X55360908Y-52010323D01*
X55362157Y-51983869D01*
X55363601Y-51950813D01*
X55365276Y-51910306D01*
X55367217Y-51861501D01*
X55369460Y-51803548D01*
X55372212Y-51724892D01*
X55375365Y-51612480D01*
X55377916Y-51492575D01*
X55379839Y-51366604D01*
X55381108Y-51235991D01*
X55381700Y-51102159D01*
X55382000Y-50935877D01*
X55962000Y-50935877D01*
X55962445Y-50979635D01*
G37*
M02*
